<svg width="104" height="28" viewBox="0 0 104 28" fill="none" xmlns="http://www.w3.org/2000/svg">
<g clip-path="url(#clip0_77_894)">
<path d="M4.80744 4.81885C6.35706 2.47512 8.99143 1.26419 12.0907 1.26419H12.8655V2.82668H12.0907C7.86795 2.82668 4.84618 5.56104 4.80744 10.4438V10.6391V11.4204V19.2328V20.0141H3.25781V19.2328V11.4204V10.6391C3.25781 10.561 3.25781 10.5219 3.25781 10.4438V2.04544V1.26419H4.80744V2.04544V4.81885ZM28.28 15.3266L29.5197 16.2641C28.3575 17.9047 26.188 20.0531 22.159 20.0141C17.4714 20.0141 13.6361 15.8735 13.6361 10.6391C13.6361 5.40479 17.4714 1.26419 22.159 1.26419C26.8079 1.26419 30.682 5.40479 30.682 10.6391V11.4204H29.9071H15.2244C15.5731 15.3657 18.4787 18.4516 22.159 18.4516C25.4907 18.4906 27.2728 16.7328 28.28 15.3266ZM15.2244 9.85788H29.1323C29.1323 6.34228 26.0331 2.82668 22.159 2.82668C18.4787 2.82668 15.5731 5.9126 15.2244 9.85788ZM46.1213 4.62354C47.2448 6.92822 45.6952 2.24075 52.1261 1.26419C55.6515 0.717318 58.6345 4.42823 58.6345 8.56883V19.2328L58.6733 20.0531H57.1624L57.1236 19.2719L57.0849 8.56883C57.0849 5.44385 54.9154 2.82668 52.1261 2.82668C49.3368 2.82668 47.1673 5.44385 47.1673 8.56883V9.35008V19.2328L47.2061 20.0531H45.6952L45.6564 19.2719C45.6564 15.9516 45.6177 12.6704 45.6177 9.35008V8.56883C45.6177 5.44385 43.4482 2.82668 40.6589 2.82668C37.8696 2.82668 35.7001 5.44385 35.7001 8.56883V9.35008V19.2328V20.0141H34.1505V19.2328V9.35008V8.56883V2.04544V1.26419H35.7001V2.04544V3.80324C36.9011 2.24075 38.6831 1.26419 40.6589 1.26419C43.1383 1.26419 45.0366 2.31887 46.1213 4.62354ZM65.2199 5.2876C66.7695 2.82668 69.3652 1.22513 72.232 1.26419C76.8421 1.26419 80.7162 5.40479 80.7162 10.6391C80.7162 15.8735 76.8421 20.0141 72.1932 20.0141C69.3264 20.0141 66.7695 18.4516 65.2199 16.0297V26.4984V27.2796H63.6703V26.4984V10.6391V2.04544V1.26419H65.2199V2.04544V5.2876ZM65.2199 10.6391C65.2199 14.936 68.3192 18.4516 72.1932 18.4516C76.0673 18.4516 79.1665 14.936 79.1665 10.6391C79.1665 6.34228 76.0673 2.82668 72.232 2.82668C68.3579 2.78762 65.2974 6.34228 65.2199 10.6391ZM82.6369 10.6391C82.6369 5.40479 86.511 1.26419 91.1598 1.26419C95.8087 1.26419 99.6828 5.40479 99.6828 10.6391C99.6828 15.8735 95.8087 20.0141 91.1598 20.0141C86.511 20.0141 82.6369 15.8735 82.6369 10.6391ZM84.1865 10.6391C84.1865 14.936 87.2858 18.4516 91.1598 18.4516C95.0339 18.4516 98.1332 14.936 98.1332 10.6391C98.1332 6.34228 95.0339 2.82668 91.1598 2.82668C87.2858 2.82668 84.1865 6.34228 84.1865 10.6391Z" fill="#0259DB"/>
<path d="M4.80761 4.81905H4.24689V6.68638L5.27416 5.13267L4.80761 4.81905ZM12.8657 1.26439H13.4264V0.699015H12.8657V1.26439ZM12.8657 2.82688V3.39225H13.4264V2.82688H12.8657ZM4.80761 10.444L4.24691 10.4395L4.24689 10.4418V10.444H4.80761ZM4.80761 20.0143V20.5796H5.36833V20.0143H4.80761ZM3.25799 20.0143H2.69727V20.5796H3.25799V20.0143ZM3.25799 1.26439V0.699015H2.69727V1.26439H3.25799ZM4.80761 1.26439H5.36833V0.699015H4.80761V1.26439ZM5.27416 5.13267C6.69881 2.97796 9.1378 1.82976 12.0909 1.82976V0.699015C8.84541 0.699015 6.01568 1.97268 4.34107 4.50544L5.27416 5.13267ZM12.0909 1.82976H12.8657V0.699015H12.0909V1.82976ZM12.305 1.26439V2.82688H13.4264V1.26439H12.305ZM12.8657 2.2615H12.0909V3.39225H12.8657V2.2615ZM12.0909 2.2615C9.85823 2.2615 7.89546 2.98654 6.4845 4.40387C5.07261 5.82212 4.26723 7.87917 4.24691 10.4395L5.36832 10.4485C5.38674 8.12608 6.11161 6.37455 7.27598 5.20494C8.44129 4.0344 10.1008 3.39225 12.0909 3.39225V2.2615ZM4.24689 10.444V10.6393H5.36833V10.444H4.24689ZM4.24689 10.6393V11.4206H5.36833V10.6393H4.24689ZM4.24689 11.4206V19.233H5.36833V11.4206H4.24689ZM4.24689 19.233V20.0143H5.36833V19.233H4.24689ZM4.80761 19.4489H3.25799V20.5796H4.80761V19.4489ZM3.81871 20.0143V19.233H2.69727V20.0143H3.81871ZM3.81871 19.233V11.4206H2.69727V19.233H3.81871ZM3.81871 11.4206V10.6393H2.69727V11.4206H3.81871ZM3.81871 10.6393C3.81871 10.6392 3.81871 10.639 3.81871 10.6389C3.81871 10.6387 3.81871 10.6386 3.81871 10.6384C3.81871 10.6382 3.81871 10.6381 3.81871 10.6379C3.81871 10.6378 3.81871 10.6376 3.81871 10.6375C3.81871 10.6374 3.81871 10.6372 3.81871 10.6371C3.81871 10.6369 3.81871 10.6368 3.81871 10.6366C3.81871 10.6364 3.81871 10.6363 3.81871 10.6361C3.81871 10.636 3.81871 10.6358 3.81871 10.6357C3.81871 10.6355 3.81871 10.6354 3.81871 10.6353C3.81871 10.6351 3.81871 10.635 3.81871 10.6348C3.81871 10.6346 3.81871 10.6345 3.81871 10.6343C3.81871 10.6342 3.81871 10.634 3.81871 10.6339C3.81871 10.6337 3.81871 10.6336 3.81871 10.6335C3.81871 10.6333 3.81871 10.6332 3.81871 10.633C3.81871 10.6329 3.81871 10.6327 3.81871 10.6325C3.81871 10.6324 3.81871 10.6323 3.81871 10.6321C3.81871 10.632 3.81871 10.6318 3.81871 10.6317C3.81871 10.6315 3.81871 10.6314 3.81871 10.6312C3.81871 10.6311 3.81871 10.6309 3.81871 10.6308C3.81871 10.6306 3.81871 10.6305 3.81871 10.6303C3.81871 10.6302 3.81871 10.6301 3.81871 10.6299C3.81871 10.6298 3.81871 10.6296 3.81871 10.6295C3.81871 10.6293 3.81871 10.6292 3.81871 10.629C3.81871 10.6289 3.81871 10.6287 3.81871 10.6286C3.81871 10.6284 3.81871 10.6283 3.81871 10.6282C3.81871 10.628 3.81871 10.6279 3.81871 10.6277C3.81871 10.6276 3.81871 10.6274 3.81871 10.6273C3.81871 10.6271 3.81871 10.627 3.81871 10.6268C3.81871 10.6267 3.81871 10.6266 3.81871 10.6264C3.81871 10.6263 3.81871 10.6261 3.81871 10.626C3.81871 10.6259 3.81871 10.6257 3.81871 10.6256C3.81871 10.6254 3.81871 10.6252 3.81871 10.6251C3.81871 10.625 3.81871 10.6248 3.81871 10.6247C3.81871 10.6245 3.81871 10.6244 3.81871 10.6243C3.81871 10.6241 3.81871 10.624 3.81871 10.6238C3.81871 10.6237 3.81871 10.6235 3.81871 10.6234C3.81871 10.6232 3.81871 10.6231 3.81871 10.623C3.81871 10.6228 3.81871 10.6227 3.81871 10.6225C3.81871 10.6224 3.81871 10.6223 3.81871 10.6221C3.81871 10.622 3.81871 10.6219 3.81871 10.6217C3.81871 10.6215 3.81871 10.6214 3.81871 10.6213C3.81871 10.6211 3.81871 10.621 3.81871 10.6208C3.81871 10.6207 3.81871 10.6206 3.81871 10.6204C3.81871 10.6203 3.81871 10.6202 3.81871 10.62C3.81871 10.6198 3.81871 10.6197 3.81871 10.6196C3.81871 10.6194 3.81871 10.6193 3.81871 10.6192C3.81871 10.619 3.81871 10.6189 3.81871 10.6187C3.81871 10.6186 3.81871 10.6185 3.81871 10.6183C3.81871 10.6182 3.81871 10.618 3.81871 10.6179C3.81871 10.6177 3.81871 10.6176 3.81871 10.6175C3.81871 10.6173 3.81871 10.6172 3.81871 10.6171C3.81871 10.6169 3.81871 10.6168 3.81871 10.6167C3.81871 10.6165 3.81871 10.6164 3.81871 10.6162C3.81871 10.6161 3.81871 10.6159 3.81871 10.6158C3.81871 10.6157 3.81871 10.6155 3.81871 10.6154C3.81871 10.6153 3.81871 10.6151 3.81871 10.615C3.81871 10.6149 3.81871 10.6147 3.81871 10.6146C3.81871 10.6145 3.81871 10.6143 3.81871 10.6141C3.81871 10.614 3.81871 10.6139 3.81871 10.6137C3.81871 10.6136 3.81871 10.6135 3.81871 10.6133C3.81871 10.6132 3.81871 10.6131 3.81871 10.613C3.81871 10.6128 3.81871 10.6127 3.81871 10.6125C3.81871 10.6124 3.81871 10.6122 3.81871 10.6121C3.81871 10.612 3.81871 10.6118 3.81871 10.6117C3.81871 10.6116 3.81871 10.6114 3.81871 10.6113C3.81871 10.6112 3.81871 10.611 3.81871 10.6109C3.81871 10.6107 3.81871 10.6106 3.81871 10.6105C3.81871 10.6103 3.81871 10.6102 3.81871 10.6101C3.81871 10.6099 3.81871 10.6098 3.81871 10.6097C3.81871 10.6096 3.81871 10.6094 3.81871 10.6093C3.81871 10.6092 3.81871 10.609 3.81871 10.6088C3.81871 10.6087 3.81871 10.6086 3.81871 10.6085C3.81871 10.6083 3.81871 10.6082 3.81871 10.6081C3.81871 10.6079 3.81871 10.6078 3.81871 10.6077C3.81871 10.6075 3.81871 10.6074 3.81871 10.6073C3.81871 10.6072 3.81871 10.607 3.81871 10.6068C3.81871 10.6067 3.81871 10.6066 3.81871 10.6065C3.81871 10.6063 3.81871 10.6062 3.81871 10.6061C3.81871 10.6059 3.81871 10.6058 3.81871 10.6057C3.81871 10.6056 3.81871 10.6054 3.81871 10.6053C3.81871 10.6051 3.81871 10.605 3.81871 10.6049C3.81871 10.6047 3.81871 10.6046 3.81871 10.6045C3.81871 10.6043 3.81871 10.6042 3.81871 10.6041C3.81871 10.604 3.81871 10.6038 3.81871 10.6037C3.81871 10.6036 3.81871 10.6034 3.81871 10.6033C3.81871 10.6031 3.81871 10.603 3.81871 10.6029C3.81871 10.6028 3.81871 10.6026 3.81871 10.6025C3.81871 10.6024 3.81871 10.6022 3.81871 10.6021C3.81871 10.602 3.81871 10.6019 3.81871 10.6017C3.81871 10.6016 3.81871 10.6014 3.81871 10.6013C3.81871 10.6012 3.81871 10.6011 3.81871 10.6009C3.81871 10.6008 3.81871 10.6007 3.81871 10.6005C3.81871 10.6004 3.81871 10.6003 3.81871 10.6002C3.81871 10.6 3.81871 10.5999 3.81871 10.5998C3.81871 10.5996 3.81871 10.5995 3.81871 10.5994C3.81871 10.5992 3.81871 10.5991 3.81871 10.599C3.81871 10.5989 3.81871 10.5987 3.81871 10.5986C3.81871 10.5985 3.81871 10.5984 3.81871 10.5982C3.81871 10.5981 3.81871 10.598 3.81871 10.5978C3.81871 10.5977 3.81871 10.5976 3.81871 10.5974C3.81871 10.5973 3.81871 10.5972 3.81871 10.5971C3.81871 10.5969 3.81871 10.5968 3.81871 10.5967C3.81871 10.5966 3.81871 10.5964 3.81871 10.5963C3.81871 10.5962 3.81871 10.5961 3.81871 10.5959C3.81871 10.5958 3.81871 10.5956 3.81871 10.5955C3.81871 10.5954 3.81871 10.5953 3.81871 10.5951C3.81871 10.595 3.81871 10.5949 3.81871 10.5948C3.81871 10.5946 3.81871 10.5945 3.81871 10.5944C3.81871 10.5943 3.81871 10.5941 3.81871 10.594C3.81871 10.5938 3.81871 10.5937 3.81871 10.5936C3.81871 10.5935 3.81871 10.5934 3.81871 10.5932C3.81871 10.5931 3.81871 10.593 3.81871 10.5929C3.81871 10.5927 3.81871 10.5926 3.81871 10.5925C3.81871 10.5923 3.81871 10.5922 3.81871 10.5921C3.81871 10.5919 3.81871 10.5918 3.81871 10.5917C3.81871 10.5916 3.81871 10.5915 3.81871 10.5913C3.81871 10.5912 3.81871 10.5911 3.81871 10.591C3.81871 10.5908 3.81871 10.5907 3.81871 10.5906C3.81871 10.5904 3.81871 10.5903 3.81871 10.5902C3.81871 10.5901 3.81871 10.5899 3.81871 10.5898C3.81871 10.5897 3.81871 10.5896 3.81871 10.5895C3.81871 10.5893 3.81871 10.5892 3.81871 10.5891C3.81871 10.589 3.81871 10.5888 3.81871 10.5887C3.81871 10.5886 3.81871 10.5884 3.81871 10.5883C3.81871 10.5882 3.81871 10.5881 3.81871 10.5879C3.81871 10.5878 3.81871 10.5877 3.81871 10.5876C3.81871 10.5875 3.81871 10.5873 3.81871 10.5872C3.81871 10.5871 3.81871 10.587 3.81871 10.5868C3.81871 10.5867 3.81871 10.5866 3.81871 10.5865C3.81871 10.5863 3.81871 10.5862 3.81871 10.5861C3.81871 10.586 3.81871 10.5858 3.81871 10.5857C3.81871 10.5856 3.81871 10.5855 3.81871 10.5854C3.81871 10.5852 3.81871 10.5851 3.81871 10.585C3.81871 10.5848 3.81871 10.5847 3.81871 10.5846C3.81871 10.5845 3.81871 10.5844 3.81871 10.5842C3.81871 10.5841 3.81871 10.584 3.81871 10.5839C3.81871 10.5838 3.81871 10.5836 3.81871 10.5835C3.81871 10.5834 3.81871 10.5833 3.81871 10.5831C3.81871 10.583 3.81871 10.5829 3.81871 10.5828C3.81871 10.5826 3.81871 10.5825 3.81871 10.5824C3.81871 10.5823 3.81871 10.5822 3.81871 10.582C3.81871 10.5819 3.81871 10.5818 3.81871 10.5817C3.81871 10.5816 3.81871 10.5815 3.81871 10.5813C3.81871 10.5812 3.81871 10.581 3.81871 10.5809C3.81871 10.5808 3.81871 10.5807 3.81871 10.5806C3.81871 10.5805 3.81871 10.5803 3.81871 10.5802C3.81871 10.5801 3.81871 10.58 3.81871 10.5799C3.81871 10.5797 3.81871 10.5796 3.81871 10.5795C3.81871 10.5793 3.81871 10.5792 3.81871 10.5791C3.81871 10.579 3.81871 10.5789 3.81871 10.5788C3.81871 10.5786 3.81871 10.5785 3.81871 10.5784C3.81871 10.5783 3.81871 10.5782 3.81871 10.578C3.81871 10.5779 3.81871 10.5778 3.81871 10.5776C3.81871 10.5775 3.81871 10.5774 3.81871 10.5773C3.81871 10.5772 3.81871 10.5771 3.81871 10.5769C3.81871 10.5768 3.81871 10.5767 3.81871 10.5766C3.81871 10.5765 3.81871 10.5764 3.81871 10.5762C3.81871 10.5761 3.81871 10.576 3.81871 10.5759C3.81871 10.5757 3.81871 10.5756 3.81871 10.5755C3.81871 10.5754 3.81871 10.5753 3.81871 10.5751C3.81871 10.575 3.81871 10.5749 3.81871 10.5748C3.81871 10.5747 3.81871 10.5746 3.81871 10.5744C3.81871 10.5743 3.81871 10.5742 3.81871 10.5741C3.81871 10.5739 3.81871 10.5738 3.81871 10.5737C3.81871 10.5736 3.81871 10.5735 3.81871 10.5733C3.81871 10.5732 3.81871 10.5731 3.81871 10.573C3.81871 10.5729 3.81871 10.5728 3.81871 10.5726C3.81871 10.5725 3.81871 10.5724 3.81871 10.5723C3.81871 10.5722 3.81871 10.572 3.81871 10.5719C3.81871 10.5718 3.81871 10.5717 3.81871 10.5716C3.81871 10.5714 3.81871 10.5713 3.81871 10.5712C3.81871 10.5711 3.81871 10.571 3.81871 10.5709C3.81871 10.5707 3.81871 10.5706 3.81871 10.5705C3.81871 10.5704 3.81871 10.5702 3.81871 10.5701C3.81871 10.57 3.81871 10.5699 3.81871 10.5698C3.81871 10.5697 3.81871 10.5695 3.81871 10.5694C3.81871 10.5693 3.81871 10.5692 3.81871 10.5691C3.81871 10.569 3.81871 10.5689 3.81871 10.5687C3.81871 10.5686 3.81871 10.5685 3.81871 10.5683C3.81871 10.5682 3.81871 10.5681 3.81871 10.568C3.81871 10.5679 3.81871 10.5678 3.81871 10.5677C3.81871 10.5675 3.81871 10.5674 3.81871 10.5673C3.81871 10.5672 3.81871 10.5671 3.81871 10.567C3.81871 10.5669 3.81871 10.5667 3.81871 10.5666C3.81871 10.5665 3.81871 10.5664 3.81871 10.5662C3.81871 10.5661 3.81871 10.566 3.81871 10.5659C3.81871 10.5658 3.81871 10.5657 3.81871 10.5656C3.81871 10.5654 3.81871 10.5653 3.81871 10.5652C3.81871 10.5651 3.81871 10.565 3.81871 10.5649C3.81871 10.5647 3.81871 10.5646 3.81871 10.5645C3.81871 10.5644 3.81871 10.5643 3.81871 10.5641C3.81871 10.564 3.81871 10.5639 3.81871 10.5638C3.81871 10.5637 3.81871 10.5636 3.81871 10.5635C3.81871 10.5633 3.81871 10.5632 3.81871 10.5631C3.81871 10.563 3.81871 10.5628 3.81871 10.5627C3.81871 10.5626 3.81871 10.5625 3.81871 10.5624C3.81871 10.5623 3.81871 10.5622 3.81871 10.562C3.81871 10.5619 3.81871 10.5618 3.81871 10.5617C3.81871 10.5616 3.81871 10.5615 3.81871 10.5614C3.81871 10.5613 3.81871 10.5611 3.81871 10.561C3.81871 10.5609 3.81871 10.5608 3.81871 10.5606C3.81871 10.5605 3.81871 10.5604 3.81871 10.5603C3.81871 10.5602 3.81871 10.5601 3.81871 10.56C3.81871 10.5598 3.81871 10.5597 3.81871 10.5596C3.81871 10.5595 3.81871 10.5594 3.81871 10.5592C3.81871 10.5591 3.81871 10.559 3.81871 10.5589C3.81871 10.5588 3.81871 10.5587 3.81871 10.5586C3.81871 10.5584 3.81871 10.5583 3.81871 10.5582C3.81871 10.5581 3.81871 10.558 3.81871 10.5579C3.81871 10.5578 3.81871 10.5577 3.81871 10.5575C3.81871 10.5574 3.81871 10.5573 3.81871 10.5572C3.81871 10.557 3.81871 10.5569 3.81871 10.5568C3.81871 10.5567 3.81871 10.5566 3.81871 10.5565C3.81871 10.5564 3.81871 10.5563 3.81871 10.5561C3.81871 10.556 3.81871 10.5559 3.81871 10.5558C3.81871 10.5557 3.81871 10.5555 3.81871 10.5554C3.81871 10.5553 3.81871 10.5552 3.81871 10.5551C3.81871 10.555 3.81871 10.5549 3.81871 10.5547C3.81871 10.5546 3.81871 10.5545 3.81871 10.5544C3.81871 10.5543 3.81871 10.5542 3.81871 10.5541C3.81871 10.554 3.81871 10.5539 3.81871 10.5537C3.81871 10.5536 3.81871 10.5535 3.81871 10.5534C3.81871 10.5532 3.81871 10.5531 3.81871 10.553C3.81871 10.5529 3.81871 10.5528 3.81871 10.5527C3.81871 10.5526 3.81871 10.5525 3.81871 10.5523C3.81871 10.5522 3.81871 10.5521 3.81871 10.552C3.81871 10.5518 3.81871 10.5517 3.81871 10.5516C3.81871 10.5515 3.81871 10.5514 3.81871 10.5513C3.81871 10.5512 3.81871 10.5511 3.81871 10.551C3.81871 10.5508 3.81871 10.5507 3.81871 10.5506C3.81871 10.5505 3.81871 10.5504 3.81871 10.5503C3.81871 10.5502 3.81871 10.55 3.81871 10.5499C3.81871 10.5498 3.81871 10.5497 3.81871 10.5496C3.81871 10.5495 3.81871 10.5493 3.81871 10.5492C3.81871 10.5491 3.81871 10.549 3.81871 10.5489C3.81871 10.5488 3.81871 10.5487 3.81871 10.5486C3.81871 10.5484 3.81871 10.5483 3.81871 10.5482C3.81871 10.5481 3.81871 10.548 3.81871 10.5478C3.81871 10.5477 3.81871 10.5476 3.81871 10.5475C3.81871 10.5474 3.81871 10.5473 3.81871 10.5472C3.81871 10.5471 3.81871 10.5469 3.81871 10.5468C3.81871 10.5467 3.81871 10.5466 3.81871 10.5465C3.81871 10.5463 3.81871 10.5462 3.81871 10.5461C3.81871 10.546 3.81871 10.5459 3.81871 10.5458C3.81871 10.5457 3.81871 10.5456 3.81871 10.5454C3.81871 10.5453 3.81871 10.5452 3.81871 10.5451C3.81871 10.545 3.81871 10.5449 3.81871 10.5448C3.81871 10.5447 3.81871 10.5446 3.81871 10.5444C3.81871 10.5443 3.81871 10.5442 3.81871 10.5441C3.81871 10.544 3.81871 10.5438 3.81871 10.5437C3.81871 10.5436 3.81871 10.5435 3.81871 10.5434C3.81871 10.5433 3.81871 10.5432 3.81871 10.5431C3.81871 10.5429 3.81871 10.5428 3.81871 10.5427C3.81871 10.5426 3.81871 10.5425 3.81871 10.5423C3.81871 10.5422 3.81871 10.5421 3.81871 10.542C3.81871 10.5419 3.81871 10.5418 3.81871 10.5417C3.81871 10.5416 3.81871 10.5415 3.81871 10.5413C3.81871 10.5412 3.81871 10.5411 3.81871 10.541C3.81871 10.5408 3.81871 10.5407 3.81871 10.5406C3.81871 10.5405 3.81871 10.5404 3.81871 10.5403C3.81871 10.5402 3.81871 10.5401 3.81871 10.54C3.81871 10.5398 3.81871 10.5397 3.81871 10.5396C3.81871 10.5395 3.81871 10.5394 3.81871 10.5393C3.81871 10.5392 3.81871 10.5391 3.81871 10.5389C3.81871 10.5388 3.81871 10.5387 3.81871 10.5386C3.81871 10.5385 3.81871 10.5383 3.81871 10.5382C3.81871 10.5381 3.81871 10.538 3.81871 10.5379C3.81871 10.5378 3.81871 10.5377 3.81871 10.5376C3.81871 10.5375 3.81871 10.5373 3.81871 10.5372C3.81871 10.5371 3.81871 10.537 3.81871 10.5368C3.81871 10.5367 3.81871 10.5366 3.81871 10.5365C3.81871 10.5364 3.81871 10.5363 3.81871 10.5362C3.81871 10.5361 3.81871 10.536 3.81871 10.5358C3.81871 10.5357 3.81871 10.5356 3.81871 10.5355C3.81871 10.5353 3.81871 10.5352 3.81871 10.5351C3.81871 10.535 3.81871 10.5349 3.81871 10.5348C3.81871 10.5347 3.81871 10.5346 3.81871 10.5345C3.81871 10.5343 3.81871 10.5342 3.81871 10.5341C3.81871 10.534 3.81871 10.5339 3.81871 10.5338C3.81871 10.5337 3.81871 10.5336 3.81871 10.5334C3.81871 10.5333 3.81871 10.5332 3.81871 10.5331C3.81871 10.533 3.81871 10.5328 3.81871 10.5327C3.81871 10.5326 3.81871 10.5325 3.81871 10.5324C3.81871 10.5323 3.81871 10.5322 3.81871 10.5321C3.81871 10.5319 3.81871 10.5318 3.81871 10.5317C3.81871 10.5316 3.81871 10.5315 3.81871 10.5313C3.81871 10.5312 3.81871 10.5311 3.81871 10.531C3.81871 10.5309 3.81871 10.5308 3.81871 10.5307C3.81871 10.5306 3.81871 10.5304 3.81871 10.5303C3.81871 10.5302 3.81871 10.5301 3.81871 10.53C3.81871 10.5299 3.81871 10.5297 3.81871 10.5296C3.81871 10.5295 3.81871 10.5294 3.81871 10.5293C3.81871 10.5292 3.81871 10.5291 3.81871 10.5289C3.81871 10.5288 3.81871 10.5287 3.81871 10.5286C3.81871 10.5285 3.81871 10.5284 3.81871 10.5283C3.81871 10.5282 3.81871 10.528 3.81871 10.5279C3.81871 10.5278 3.81871 10.5277 3.81871 10.5275C3.81871 10.5274 3.81871 10.5273 3.81871 10.5272C3.81871 10.5271 3.81871 10.527 3.81871 10.5269C3.81871 10.5268 3.81871 10.5266 3.81871 10.5265C3.81871 10.5264 3.81871 10.5263 3.81871 10.5261C3.81871 10.526 3.81871 10.5259 3.81871 10.5258C3.81871 10.5257 3.81871 10.5256 3.81871 10.5255C3.81871 10.5254 3.81871 10.5252 3.81871 10.5251C3.81871 10.525 3.81871 10.5249 3.81871 10.5248C3.81871 10.5247 3.81871 10.5246 3.81871 10.5245C3.81871 10.5243 3.81871 10.5242 3.81871 10.5241C3.81871 10.524 3.81871 10.5238 3.81871 10.5237C3.81871 10.5236 3.81871 10.5235 3.81871 10.5234C3.81871 10.5233 3.81871 10.5232 3.81871 10.5231C3.81871 10.5229 3.81871 10.5228 3.81871 10.5227C3.81871 10.5226 3.81871 10.5224 3.81871 10.5223C3.81871 10.5222 3.81871 10.5221 3.81871 10.522C3.81871 10.5219 3.81871 10.5218 3.81871 10.5216C3.81871 10.5215 3.81871 10.5214 3.81871 10.5213C3.81871 10.5212 3.81871 10.5211 3.81871 10.521C3.81871 10.5208 3.81871 10.5207 3.81871 10.5206C3.81871 10.5205 3.81871 10.5203 3.81871 10.5202C3.81871 10.5201 3.81871 10.52 3.81871 10.5199C3.81871 10.5198 3.81871 10.5197 3.81871 10.5196C3.81871 10.5194 3.81871 10.5193 3.81871 10.5192C3.81871 10.5191 3.81871 10.519 3.81871 10.5189C3.81871 10.5187 3.81871 10.5186 3.81871 10.5185C3.81871 10.5184 3.81871 10.5182 3.81871 10.5181C3.81871 10.518 3.81871 10.5179 3.81871 10.5178C3.81871 10.5177 3.81871 10.5176 3.81871 10.5175C3.81871 10.5173 3.81871 10.5172 3.81871 10.5171C3.81871 10.5169 3.81871 10.5168 3.81871 10.5167C3.81871 10.5166 3.81871 10.5165 3.81871 10.5164C3.81871 10.5163 3.81871 10.5161 3.81871 10.516C3.81871 10.5159 3.81871 10.5158 3.81871 10.5157C3.81871 10.5156 3.81871 10.5155 3.81871 10.5153C3.81871 10.5152 3.81871 10.5151 3.81871 10.5149C3.81871 10.5148 3.81871 10.5147 3.81871 10.5146C3.81871 10.5145 3.81871 10.5144 3.81871 10.5143C3.81871 10.5141 3.81871 10.514 3.81871 10.5139C3.81871 10.5138 3.81871 10.5137 3.81871 10.5136C3.81871 10.5135 3.81871 10.5133 3.81871 10.5132C3.81871 10.5131 3.81871 10.5129 3.81871 10.5128C3.81871 10.5127 3.81871 10.5126 3.81871 10.5125C3.81871 10.5124 3.81871 10.5123 3.81871 10.5121C3.81871 10.512 3.81871 10.5119 3.81871 10.5118C3.81871 10.5117 3.81871 10.5116 3.81871 10.5114C3.81871 10.5113 3.81871 10.5112 3.81871 10.511C3.81871 10.5109 3.81871 10.5108 3.81871 10.5107C3.81871 10.5106 3.81871 10.5105 3.81871 10.5104C3.81871 10.5102 3.81871 10.5101 3.81871 10.51C3.81871 10.5099 3.81871 10.5098 3.81871 10.5097C3.81871 10.5095 3.81871 10.5094 3.81871 10.5093C3.81871 10.5091 3.81871 10.509 3.81871 10.5089C3.81871 10.5088 3.81871 10.5087 3.81871 10.5086C3.81871 10.5084 3.81871 10.5083 3.81871 10.5082C3.81871 10.5081 3.81871 10.508 3.81871 10.5079C3.81871 10.5077 3.81871 10.5076 3.81871 10.5075C3.81871 10.5073 3.81871 10.5072 3.81871 10.5071C3.81871 10.507 3.81871 10.5069 3.81871 10.5068C3.81871 10.5066 3.81871 10.5065 3.81871 10.5064C3.81871 10.5063 3.81871 10.5062 3.81871 10.5061C3.81871 10.5059 3.81871 10.5058 3.81871 10.5057C3.81871 10.5055 3.81871 10.5054 3.81871 10.5053C3.81871 10.5052 3.81871 10.5051 3.81871 10.505C3.81871 10.5048 3.81871 10.5047 3.81871 10.5046C3.81871 10.5045 3.81871 10.5044 3.81871 10.5042C3.81871 10.5041 3.81871 10.504 3.81871 10.5038C3.81871 10.5037 3.81871 10.5036 3.81871 10.5035C3.81871 10.5034 3.81871 10.5033 3.81871 10.5031C3.81871 10.503 3.81871 10.5029 3.81871 10.5028C3.81871 10.5027 3.81871 10.5025 3.81871 10.5024C3.81871 10.5023 3.81871 10.5021 3.81871 10.502C3.81871 10.5019 3.81871 10.5018 3.81871 10.5017C3.81871 10.5015 3.81871 10.5014 3.81871 10.5013C3.81871 10.5012 3.81871 10.5011 3.81871 10.5009C3.81871 10.5008 3.81871 10.5007 3.81871 10.5006C3.81871 10.5005 3.81871 10.5003 3.81871 10.5002C3.81871 10.5001 3.81871 10.4999 3.81871 10.4998C3.81871 10.4997 3.81871 10.4996 3.81871 10.4995C3.81871 10.4993 3.81871 10.4992 3.81871 10.4991C3.81871 10.499 3.81871 10.4989 3.81871 10.4988C3.81871 10.4986 3.81871 10.4985 3.81871 10.4983C3.81871 10.4982 3.81871 10.4981 3.81871 10.498C3.81871 10.4979 3.81871 10.4977 3.81871 10.4976C3.81871 10.4975 3.81871 10.4974 3.81871 10.4973C3.81871 10.4971 3.81871 10.497 3.81871 10.4969C3.81871 10.4968 3.81871 10.4966 3.81871 10.4965C3.81871 10.4964 3.81871 10.4962 3.81871 10.4961C3.81871 10.496 3.81871 10.4959 3.81871 10.4958C3.81871 10.4956 3.81871 10.4955 3.81871 10.4954C3.81871 10.4953 3.81871 10.4952 3.81871 10.495C3.81871 10.4949 3.81871 10.4947 3.81871 10.4946C3.81871 10.4945 3.81871 10.4944 3.81871 10.4943C3.81871 10.4941 3.81871 10.494 3.81871 10.4939C3.81871 10.4938 3.81871 10.4937 3.81871 10.4935C3.81871 10.4934 3.81871 10.4933 3.81871 10.4932C3.81871 10.493 3.81871 10.4929 3.81871 10.4927C3.81871 10.4926 3.81871 10.4925 3.81871 10.4924C3.81871 10.4923 3.81871 10.4921 3.81871 10.492C3.81871 10.4919 3.81871 10.4918 3.81871 10.4916C3.81871 10.4915 3.81871 10.4914 3.81871 10.4913C3.81871 10.4911 3.81871 10.491 3.81871 10.4909C3.81871 10.4907 3.81871 10.4906 3.81871 10.4905C3.81871 10.4904 3.81871 10.4902 3.81871 10.4901C3.81871 10.49 3.81871 10.4899 3.81871 10.4898C3.81871 10.4896 3.81871 10.4895 3.81871 10.4893C3.81871 10.4892 3.81871 10.4891 3.81871 10.489C3.81871 10.4888 3.81871 10.4887 3.81871 10.4886C3.81871 10.4885 3.81871 10.4883 3.81871 10.4882C3.81871 10.4881 3.81871 10.488 3.81871 10.4878C3.81871 10.4877 3.81871 10.4875 3.81871 10.4874C3.81871 10.4873 3.81871 10.4872 3.81871 10.487C3.81871 10.4869 3.81871 10.4868 3.81871 10.4867C3.81871 10.4865 3.81871 10.4864 3.81871 10.4863C3.81871 10.4862 3.81871 10.486 3.81871 10.4859C3.81871 10.4858 3.81871 10.4856 3.81871 10.4855C3.81871 10.4854 3.81871 10.4852 3.81871 10.4851C3.81871 10.485 3.81871 10.4849 3.81871 10.4847C3.81871 10.4846 3.81871 10.4845 3.81871 10.4844C3.81871 10.4842 3.81871 10.4841 3.81871 10.484C3.81871 10.4838 3.81871 10.4837 3.81871 10.4836C3.81871 10.4834 3.81871 10.4833 3.81871 10.4832C3.81871 10.4831 3.81871 10.4829 3.81871 10.4828C3.81871 10.4827 3.81871 10.4826 3.81871 10.4824C3.81871 10.4823 3.81871 10.4822 3.81871 10.482C3.81871 10.4819 3.81871 10.4817 3.81871 10.4816C3.81871 10.4815 3.81871 10.4814 3.81871 10.4812C3.81871 10.4811 3.81871 10.481 3.81871 10.4808C3.81871 10.4807 3.81871 10.4806 3.81871 10.4805C3.81871 10.4803 3.81871 10.4802 3.81871 10.48C3.81871 10.4799 3.81871 10.4798 3.81871 10.4796C3.81871 10.4795 3.81871 10.4794 3.81871 10.4793C3.81871 10.4791 3.81871 10.479 3.81871 10.4789C3.81871 10.4787 3.81871 10.4786 3.81871 10.4785C3.81871 10.4783 3.81871 10.4782 3.81871 10.4781C3.81871 10.4779 3.81871 10.4778 3.81871 10.4777C3.81871 10.4775 3.81871 10.4774 3.81871 10.4773C3.81871 10.4772 3.81871 10.477 3.81871 10.4769C3.81871 10.4768 3.81871 10.4766 3.81871 10.4765C3.81871 10.4763 3.81871 10.4762 3.81871 10.4761C3.81871 10.4759 3.81871 10.4758 3.81871 10.4757C3.81871 10.4755 3.81871 10.4754 3.81871 10.4753C3.81871 10.4752 3.81871 10.475 3.81871 10.4749C3.81871 10.4748 3.81871 10.4746 3.81871 10.4745C3.81871 10.4743 3.81871 10.4742 3.81871 10.4741C3.81871 10.4739 3.81871 10.4738 3.81871 10.4737C3.81871 10.4735 3.81871 10.4734 3.81871 10.4733C3.81871 10.4731 3.81871 10.473 3.81871 10.4728C3.81871 10.4727 3.81871 10.4726 3.81871 10.4724C3.81871 10.4723 3.81871 10.4722 3.81871 10.472C3.81871 10.4719 3.81871 10.4718 3.81871 10.4716C3.81871 10.4715 3.81871 10.4714 3.81871 10.4712C3.81871 10.4711 3.81871 10.4709 3.81871 10.4708C3.81871 10.4707 3.81871 10.4705 3.81871 10.4704C3.81871 10.4703 3.81871 10.4701 3.81871 10.47C3.81871 10.4699 3.81871 10.4697 3.81871 10.4696C3.81871 10.4695 3.81871 10.4693 3.81871 10.4692C3.81871 10.469 3.81871 10.4689 3.81871 10.4687C3.81871 10.4686 3.81871 10.4685 3.81871 10.4683C3.81871 10.4682 3.81871 10.4681 3.81871 10.4679C3.81871 10.4678 3.81871 10.4677 3.81871 10.4675C3.81871 10.4674 3.81871 10.4672 3.81871 10.4671C3.81871 10.467 3.81871 10.4668 3.81871 10.4667C3.81871 10.4665 3.81871 10.4664 3.81871 10.4663C3.81871 10.4661 3.81871 10.466 3.81871 10.4659C3.81871 10.4657 3.81871 10.4656 3.81871 10.4654C3.81871 10.4653 3.81871 10.4651 3.81871 10.465C3.81871 10.4649 3.81871 10.4647 3.81871 10.4646C3.81871 10.4645 3.81871 10.4643 3.81871 10.4642C3.81871 10.4641 3.81871 10.4639 3.81871 10.4638C3.81871 10.4636 3.81871 10.4635 3.81871 10.4633C3.81871 10.4632 3.81871 10.4631 3.81871 10.4629C3.81871 10.4628 3.81871 10.4626 3.81871 10.4625C3.81871 10.4624 3.81871 10.4622 3.81871 10.4621C3.81871 10.462 3.81871 10.4618 3.81871 10.4616C3.81871 10.4615 3.81871 10.4614 3.81871 10.4612C3.81871 10.4611 3.81871 10.4609 3.81871 10.4608C3.81871 10.4607 3.81871 10.4605 3.81871 10.4604C3.81871 10.4602 3.81871 10.4601 3.81871 10.4599C3.81871 10.4598 3.81871 10.4596 3.81871 10.4595C3.81871 10.4594 3.81871 10.4592 3.81871 10.4591C3.81871 10.4589 3.81871 10.4588 3.81871 10.4587C3.81871 10.4585 3.81871 10.4584 3.81871 10.4582C3.81871 10.4581 3.81871 10.4579 3.81871 10.4578C3.81871 10.4576 3.81871 10.4575 3.81871 10.4574C3.81871 10.4572 3.81871 10.4571 3.81871 10.4569C3.81871 10.4568 3.81871 10.4567 3.81871 10.4565C3.81871 10.4564 3.81871 10.4562 3.81871 10.456C3.81871 10.4559 3.81871 10.4558 3.81871 10.4556C3.81871 10.4555 3.81871 10.4553 3.81871 10.4552C3.81871 10.4551 3.81871 10.4549 3.81871 10.4548C3.81871 10.4546 3.81871 10.4544 3.81871 10.4543C3.81871 10.4542 3.81871 10.454 3.81871 10.4539C3.81871 10.4537 3.81871 10.4536 3.81871 10.4534C3.81871 10.4533 3.81871 10.4532 3.81871 10.453C3.81871 10.4529 3.81871 10.4527 3.81871 10.4525C3.81871 10.4524 3.81871 10.4522 3.81871 10.4521C3.81871 10.452 3.81871 10.4518 3.81871 10.4517C3.81871 10.4515 3.81871 10.4514 3.81871 10.4512C3.81871 10.4511 3.81871 10.451 3.81871 10.4508C3.81871 10.4506 3.81871 10.4505 3.81871 10.4503C3.81871 10.4502 3.81871 10.45 3.81871 10.4499C3.81871 10.4497 3.81871 10.4496 3.81871 10.4495C3.81871 10.4493 3.81871 10.4492 3.81871 10.449C3.81871 10.4488 3.81871 10.4487 3.81871 10.4485C3.81871 10.4484 3.81871 10.4482 3.81871 10.4481C3.81871 10.448 3.81871 10.4478 3.81871 10.4477C3.81871 10.4475 3.81871 10.4474 3.81871 10.4472C3.81871 10.447 3.81871 10.4469 3.81871 10.4467C3.81871 10.4466 3.81871 10.4464 3.81871 10.4463C3.81871 10.4461 3.81871 10.446 3.81871 10.4458C3.81871 10.4457 3.81871 10.4456 3.81871 10.4454C3.81871 10.4452 3.81871 10.4451 3.81871 10.4449C3.81871 10.4448 3.81871 10.4446 3.81871 10.4445C3.81871 10.4443 3.81871 10.4442 3.81871 10.444H2.69727C2.69727 10.4442 2.69727 10.4443 2.69727 10.4445C2.69727 10.4446 2.69727 10.4448 2.69727 10.4449C2.69727 10.4451 2.69727 10.4452 2.69727 10.4454C2.69727 10.4456 2.69727 10.4457 2.69727 10.4458C2.69727 10.446 2.69727 10.4461 2.69727 10.4463C2.69727 10.4464 2.69727 10.4466 2.69727 10.4467C2.69727 10.4469 2.69727 10.447 2.69727 10.4472C2.69727 10.4474 2.69727 10.4475 2.69727 10.4477C2.69727 10.4478 2.69727 10.448 2.69727 10.4481C2.69727 10.4482 2.69727 10.4484 2.69727 10.4485C2.69727 10.4487 2.69727 10.4488 2.69727 10.449C2.69727 10.4492 2.69727 10.4493 2.69727 10.4495C2.69727 10.4496 2.69727 10.4497 2.69727 10.4499C2.69727 10.45 2.69727 10.4502 2.69727 10.4503C2.69727 10.4505 2.69727 10.4506 2.69727 10.4508C2.69727 10.451 2.69727 10.4511 2.69727 10.4512C2.69727 10.4514 2.69727 10.4515 2.69727 10.4517C2.69727 10.4518 2.69727 10.452 2.69727 10.4521C2.69727 10.4522 2.69727 10.4524 2.69727 10.4525C2.69727 10.4527 2.69727 10.4529 2.69727 10.453C2.69727 10.4532 2.69727 10.4533 2.69727 10.4534C2.69727 10.4536 2.69727 10.4537 2.69727 10.4539C2.69727 10.454 2.69727 10.4542 2.69727 10.4543C2.69727 10.4544 2.69727 10.4546 2.69727 10.4548C2.69727 10.4549 2.69727 10.4551 2.69727 10.4552C2.69727 10.4553 2.69727 10.4555 2.69727 10.4556C2.69727 10.4558 2.69727 10.4559 2.69727 10.456C2.69727 10.4562 2.69727 10.4564 2.69727 10.4565C2.69727 10.4567 2.69727 10.4568 2.69727 10.4569C2.69727 10.4571 2.69727 10.4572 2.69727 10.4574C2.69727 10.4575 2.69727 10.4576 2.69727 10.4578C2.69727 10.4579 2.69727 10.4581 2.69727 10.4582C2.69727 10.4584 2.69727 10.4585 2.69727 10.4587C2.69727 10.4588 2.69727 10.4589 2.69727 10.4591C2.69727 10.4592 2.69727 10.4594 2.69727 10.4595C2.69727 10.4596 2.69727 10.4598 2.69727 10.4599C2.69727 10.4601 2.69727 10.4602 2.69727 10.4604C2.69727 10.4605 2.69727 10.4607 2.69727 10.4608C2.69727 10.4609 2.69727 10.4611 2.69727 10.4612C2.69727 10.4614 2.69727 10.4615 2.69727 10.4616C2.69727 10.4618 2.69727 10.462 2.69727 10.4621C2.69727 10.4622 2.69727 10.4624 2.69727 10.4625C2.69727 10.4626 2.69727 10.4628 2.69727 10.4629C2.69727 10.4631 2.69727 10.4632 2.69727 10.4633C2.69727 10.4635 2.69727 10.4636 2.69727 10.4638C2.69727 10.4639 2.69727 10.4641 2.69727 10.4642C2.69727 10.4643 2.69727 10.4645 2.69727 10.4646C2.69727 10.4647 2.69727 10.4649 2.69727 10.465C2.69727 10.4651 2.69727 10.4653 2.69727 10.4654C2.69727 10.4656 2.69727 10.4657 2.69727 10.4659C2.69727 10.466 2.69727 10.4661 2.69727 10.4663C2.69727 10.4664 2.69727 10.4665 2.69727 10.4667C2.69727 10.4668 2.69727 10.467 2.69727 10.4671C2.69727 10.4672 2.69727 10.4674 2.69727 10.4675C2.69727 10.4677 2.69727 10.4678 2.69727 10.4679C2.69727 10.4681 2.69727 10.4682 2.69727 10.4683C2.69727 10.4685 2.69727 10.4686 2.69727 10.4687C2.69727 10.4689 2.69727 10.469 2.69727 10.4692C2.69727 10.4693 2.69727 10.4695 2.69727 10.4696C2.69727 10.4697 2.69727 10.4699 2.69727 10.47C2.69727 10.4701 2.69727 10.4703 2.69727 10.4704C2.69727 10.4705 2.69727 10.4707 2.69727 10.4708C2.69727 10.4709 2.69727 10.4711 2.69727 10.4712C2.69727 10.4714 2.69727 10.4715 2.69727 10.4716C2.69727 10.4718 2.69727 10.4719 2.69727 10.472C2.69727 10.4722 2.69727 10.4723 2.69727 10.4724C2.69727 10.4726 2.69727 10.4727 2.69727 10.4728C2.69727 10.473 2.69727 10.4731 2.69727 10.4733C2.69727 10.4734 2.69727 10.4735 2.69727 10.4737C2.69727 10.4738 2.69727 10.4739 2.69727 10.4741C2.69727 10.4742 2.69727 10.4743 2.69727 10.4745C2.69727 10.4746 2.69727 10.4748 2.69727 10.4749C2.69727 10.475 2.69727 10.4752 2.69727 10.4753C2.69727 10.4754 2.69727 10.4755 2.69727 10.4757C2.69727 10.4758 2.69727 10.4759 2.69727 10.4761C2.69727 10.4762 2.69727 10.4763 2.69727 10.4765C2.69727 10.4766 2.69727 10.4768 2.69727 10.4769C2.69727 10.477 2.69727 10.4772 2.69727 10.4773C2.69727 10.4774 2.69727 10.4775 2.69727 10.4777C2.69727 10.4778 2.69727 10.4779 2.69727 10.4781C2.69727 10.4782 2.69727 10.4783 2.69727 10.4785C2.69727 10.4786 2.69727 10.4787 2.69727 10.4789C2.69727 10.479 2.69727 10.4791 2.69727 10.4793C2.69727 10.4794 2.69727 10.4795 2.69727 10.4796C2.69727 10.4798 2.69727 10.4799 2.69727 10.48C2.69727 10.4802 2.69727 10.4803 2.69727 10.4805C2.69727 10.4806 2.69727 10.4807 2.69727 10.4808C2.69727 10.481 2.69727 10.4811 2.69727 10.4812C2.69727 10.4814 2.69727 10.4815 2.69727 10.4816C2.69727 10.4817 2.69727 10.4819 2.69727 10.482C2.69727 10.4822 2.69727 10.4823 2.69727 10.4824C2.69727 10.4826 2.69727 10.4827 2.69727 10.4828C2.69727 10.4829 2.69727 10.4831 2.69727 10.4832C2.69727 10.4833 2.69727 10.4834 2.69727 10.4836C2.69727 10.4837 2.69727 10.4838 2.69727 10.484C2.69727 10.4841 2.69727 10.4842 2.69727 10.4844C2.69727 10.4845 2.69727 10.4846 2.69727 10.4847C2.69727 10.4849 2.69727 10.485 2.69727 10.4851C2.69727 10.4852 2.69727 10.4854 2.69727 10.4855C2.69727 10.4856 2.69727 10.4858 2.69727 10.4859C2.69727 10.486 2.69727 10.4862 2.69727 10.4863C2.69727 10.4864 2.69727 10.4865 2.69727 10.4867C2.69727 10.4868 2.69727 10.4869 2.69727 10.487C2.69727 10.4872 2.69727 10.4873 2.69727 10.4874C2.69727 10.4875 2.69727 10.4877 2.69727 10.4878C2.69727 10.488 2.69727 10.4881 2.69727 10.4882C2.69727 10.4883 2.69727 10.4885 2.69727 10.4886C2.69727 10.4887 2.69727 10.4888 2.69727 10.489C2.69727 10.4891 2.69727 10.4892 2.69727 10.4893C2.69727 10.4895 2.69727 10.4896 2.69727 10.4898C2.69727 10.4899 2.69727 10.49 2.69727 10.4901C2.69727 10.4902 2.69727 10.4904 2.69727 10.4905C2.69727 10.4906 2.69727 10.4907 2.69727 10.4909C2.69727 10.491 2.69727 10.4911 2.69727 10.4913C2.69727 10.4914 2.69727 10.4915 2.69727 10.4916C2.69727 10.4918 2.69727 10.4919 2.69727 10.492C2.69727 10.4921 2.69727 10.4923 2.69727 10.4924C2.69727 10.4925 2.69727 10.4926 2.69727 10.4927C2.69727 10.4929 2.69727 10.493 2.69727 10.4932C2.69727 10.4933 2.69727 10.4934 2.69727 10.4935C2.69727 10.4937 2.69727 10.4938 2.69727 10.4939C2.69727 10.494 2.69727 10.4941 2.69727 10.4943C2.69727 10.4944 2.69727 10.4945 2.69727 10.4946C2.69727 10.4947 2.69727 10.4949 2.69727 10.495C2.69727 10.4952 2.69727 10.4953 2.69727 10.4954C2.69727 10.4955 2.69727 10.4956 2.69727 10.4958C2.69727 10.4959 2.69727 10.496 2.69727 10.4961C2.69727 10.4962 2.69727 10.4964 2.69727 10.4965C2.69727 10.4966 2.69727 10.4968 2.69727 10.4969C2.69727 10.497 2.69727 10.4971 2.69727 10.4973C2.69727 10.4974 2.69727 10.4975 2.69727 10.4976C2.69727 10.4977 2.69727 10.4979 2.69727 10.498C2.69727 10.4981 2.69727 10.4982 2.69727 10.4983C2.69727 10.4985 2.69727 10.4986 2.69727 10.4988C2.69727 10.4989 2.69727 10.499 2.69727 10.4991C2.69727 10.4992 2.69727 10.4993 2.69727 10.4995C2.69727 10.4996 2.69727 10.4997 2.69727 10.4998C2.69727 10.4999 2.69727 10.5001 2.69727 10.5002C2.69727 10.5003 2.69727 10.5005 2.69727 10.5006C2.69727 10.5007 2.69727 10.5008 2.69727 10.5009C2.69727 10.5011 2.69727 10.5012 2.69727 10.5013C2.69727 10.5014 2.69727 10.5015 2.69727 10.5017C2.69727 10.5018 2.69727 10.5019 2.69727 10.502C2.69727 10.5021 2.69727 10.5023 2.69727 10.5024C2.69727 10.5025 2.69727 10.5027 2.69727 10.5028C2.69727 10.5029 2.69727 10.503 2.69727 10.5031C2.69727 10.5033 2.69727 10.5034 2.69727 10.5035C2.69727 10.5036 2.69727 10.5037 2.69727 10.5038C2.69727 10.504 2.69727 10.5041 2.69727 10.5042C2.69727 10.5044 2.69727 10.5045 2.69727 10.5046C2.69727 10.5047 2.69727 10.5048 2.69727 10.505C2.69727 10.5051 2.69727 10.5052 2.69727 10.5053C2.69727 10.5054 2.69727 10.5055 2.69727 10.5057C2.69727 10.5058 2.69727 10.5059 2.69727 10.5061C2.69727 10.5062 2.69727 10.5063 2.69727 10.5064C2.69727 10.5065 2.69727 10.5066 2.69727 10.5068C2.69727 10.5069 2.69727 10.507 2.69727 10.5071C2.69727 10.5072 2.69727 10.5073 2.69727 10.5075C2.69727 10.5076 2.69727 10.5077 2.69727 10.5079C2.69727 10.508 2.69727 10.5081 2.69727 10.5082C2.69727 10.5083 2.69727 10.5084 2.69727 10.5086C2.69727 10.5087 2.69727 10.5088 2.69727 10.5089C2.69727 10.509 2.69727 10.5091 2.69727 10.5093C2.69727 10.5094 2.69727 10.5095 2.69727 10.5097C2.69727 10.5098 2.69727 10.5099 2.69727 10.51C2.69727 10.5101 2.69727 10.5102 2.69727 10.5104C2.69727 10.5105 2.69727 10.5106 2.69727 10.5107C2.69727 10.5108 2.69727 10.5109 2.69727 10.511C2.69727 10.5112 2.69727 10.5113 2.69727 10.5114C2.69727 10.5116 2.69727 10.5117 2.69727 10.5118C2.69727 10.5119 2.69727 10.512 2.69727 10.5121C2.69727 10.5123 2.69727 10.5124 2.69727 10.5125C2.69727 10.5126 2.69727 10.5127 2.69727 10.5128C2.69727 10.5129 2.69727 10.5131 2.69727 10.5132C2.69727 10.5133 2.69727 10.5135 2.69727 10.5136C2.69727 10.5137 2.69727 10.5138 2.69727 10.5139C2.69727 10.514 2.69727 10.5141 2.69727 10.5143C2.69727 10.5144 2.69727 10.5145 2.69727 10.5146C2.69727 10.5147 2.69727 10.5148 2.69727 10.5149C2.69727 10.5151 2.69727 10.5152 2.69727 10.5153C2.69727 10.5155 2.69727 10.5156 2.69727 10.5157C2.69727 10.5158 2.69727 10.5159 2.69727 10.516C2.69727 10.5161 2.69727 10.5163 2.69727 10.5164C2.69727 10.5165 2.69727 10.5166 2.69727 10.5167C2.69727 10.5168 2.69727 10.5169 2.69727 10.5171C2.69727 10.5172 2.69727 10.5173 2.69727 10.5175C2.69727 10.5176 2.69727 10.5177 2.69727 10.5178C2.69727 10.5179 2.69727 10.518 2.69727 10.5181C2.69727 10.5182 2.69727 10.5184 2.69727 10.5185C2.69727 10.5186 2.69727 10.5187 2.69727 10.5189C2.69727 10.519 2.69727 10.5191 2.69727 10.5192C2.69727 10.5193 2.69727 10.5194 2.69727 10.5196C2.69727 10.5197 2.69727 10.5198 2.69727 10.5199C2.69727 10.52 2.69727 10.5201 2.69727 10.5202C2.69727 10.5203 2.69727 10.5205 2.69727 10.5206C2.69727 10.5207 2.69727 10.5208 2.69727 10.521C2.69727 10.5211 2.69727 10.5212 2.69727 10.5213C2.69727 10.5214 2.69727 10.5215 2.69727 10.5216C2.69727 10.5218 2.69727 10.5219 2.69727 10.522C2.69727 10.5221 2.69727 10.5222 2.69727 10.5223C2.69727 10.5224 2.69727 10.5226 2.69727 10.5227C2.69727 10.5228 2.69727 10.5229 2.69727 10.5231C2.69727 10.5232 2.69727 10.5233 2.69727 10.5234C2.69727 10.5235 2.69727 10.5236 2.69727 10.5237C2.69727 10.5238 2.69727 10.524 2.69727 10.5241C2.69727 10.5242 2.69727 10.5243 2.69727 10.5245C2.69727 10.5246 2.69727 10.5247 2.69727 10.5248C2.69727 10.5249 2.69727 10.525 2.69727 10.5251C2.69727 10.5252 2.69727 10.5254 2.69727 10.5255C2.69727 10.5256 2.69727 10.5257 2.69727 10.5258C2.69727 10.5259 2.69727 10.526 2.69727 10.5261C2.69727 10.5263 2.69727 10.5264 2.69727 10.5265C2.69727 10.5266 2.69727 10.5268 2.69727 10.5269C2.69727 10.527 2.69727 10.5271 2.69727 10.5272C2.69727 10.5273 2.69727 10.5274 2.69727 10.5275C2.69727 10.5277 2.69727 10.5278 2.69727 10.5279C2.69727 10.528 2.69727 10.5282 2.69727 10.5283C2.69727 10.5284 2.69727 10.5285 2.69727 10.5286C2.69727 10.5287 2.69727 10.5288 2.69727 10.5289C2.69727 10.5291 2.69727 10.5292 2.69727 10.5293C2.69727 10.5294 2.69727 10.5295 2.69727 10.5296C2.69727 10.5297 2.69727 10.5299 2.69727 10.53C2.69727 10.5301 2.69727 10.5302 2.69727 10.5303C2.69727 10.5304 2.69727 10.5306 2.69727 10.5307C2.69727 10.5308 2.69727 10.5309 2.69727 10.531C2.69727 10.5311 2.69727 10.5312 2.69727 10.5313C2.69727 10.5315 2.69727 10.5316 2.69727 10.5317C2.69727 10.5318 2.69727 10.5319 2.69727 10.5321C2.69727 10.5322 2.69727 10.5323 2.69727 10.5324C2.69727 10.5325 2.69727 10.5326 2.69727 10.5327C2.69727 10.5328 2.69727 10.533 2.69727 10.5331C2.69727 10.5332 2.69727 10.5333 2.69727 10.5334C2.69727 10.5336 2.69727 10.5337 2.69727 10.5338C2.69727 10.5339 2.69727 10.534 2.69727 10.5341C2.69727 10.5342 2.69727 10.5343 2.69727 10.5345C2.69727 10.5346 2.69727 10.5347 2.69727 10.5348C2.69727 10.5349 2.69727 10.535 2.69727 10.5351C2.69727 10.5352 2.69727 10.5353 2.69727 10.5355C2.69727 10.5356 2.69727 10.5357 2.69727 10.5358C2.69727 10.536 2.69727 10.5361 2.69727 10.5362C2.69727 10.5363 2.69727 10.5364 2.69727 10.5365C2.69727 10.5366 2.69727 10.5367 2.69727 10.5368C2.69727 10.537 2.69727 10.5371 2.69727 10.5372C2.69727 10.5373 2.69727 10.5375 2.69727 10.5376C2.69727 10.5377 2.69727 10.5378 2.69727 10.5379C2.69727 10.538 2.69727 10.5381 2.69727 10.5382C2.69727 10.5383 2.69727 10.5385 2.69727 10.5386C2.69727 10.5387 2.69727 10.5388 2.69727 10.5389C2.69727 10.5391 2.69727 10.5392 2.69727 10.5393C2.69727 10.5394 2.69727 10.5395 2.69727 10.5396C2.69727 10.5397 2.69727 10.5398 2.69727 10.54C2.69727 10.5401 2.69727 10.5402 2.69727 10.5403C2.69727 10.5404 2.69727 10.5405 2.69727 10.5406C2.69727 10.5407 2.69727 10.5408 2.69727 10.541C2.69727 10.5411 2.69727 10.5412 2.69727 10.5413C2.69727 10.5415 2.69727 10.5416 2.69727 10.5417C2.69727 10.5418 2.69727 10.5419 2.69727 10.542C2.69727 10.5421 2.69727 10.5422 2.69727 10.5423C2.69727 10.5425 2.69727 10.5426 2.69727 10.5427C2.69727 10.5428 2.69727 10.5429 2.69727 10.5431C2.69727 10.5432 2.69727 10.5433 2.69727 10.5434C2.69727 10.5435 2.69727 10.5436 2.69727 10.5437C2.69727 10.5438 2.69727 10.544 2.69727 10.5441C2.69727 10.5442 2.69727 10.5443 2.69727 10.5444C2.69727 10.5446 2.69727 10.5447 2.69727 10.5448C2.69727 10.5449 2.69727 10.545 2.69727 10.5451C2.69727 10.5452 2.69727 10.5453 2.69727 10.5454C2.69727 10.5456 2.69727 10.5457 2.69727 10.5458C2.69727 10.5459 2.69727 10.546 2.69727 10.5461C2.69727 10.5462 2.69727 10.5463 2.69727 10.5465C2.69727 10.5466 2.69727 10.5467 2.69727 10.5468C2.69727 10.5469 2.69727 10.5471 2.69727 10.5472C2.69727 10.5473 2.69727 10.5474 2.69727 10.5475C2.69727 10.5476 2.69727 10.5477 2.69727 10.5478C2.69727 10.548 2.69727 10.5481 2.69727 10.5482C2.69727 10.5483 2.69727 10.5484 2.69727 10.5486C2.69727 10.5487 2.69727 10.5488 2.69727 10.5489C2.69727 10.549 2.69727 10.5491 2.69727 10.5492C2.69727 10.5493 2.69727 10.5495 2.69727 10.5496C2.69727 10.5497 2.69727 10.5498 2.69727 10.5499C2.69727 10.55 2.69727 10.5502 2.69727 10.5503C2.69727 10.5504 2.69727 10.5505 2.69727 10.5506C2.69727 10.5507 2.69727 10.5508 2.69727 10.551C2.69727 10.5511 2.69727 10.5512 2.69727 10.5513C2.69727 10.5514 2.69727 10.5515 2.69727 10.5516C2.69727 10.5517 2.69727 10.5518 2.69727 10.552C2.69727 10.5521 2.69727 10.5522 2.69727 10.5523C2.69727 10.5525 2.69727 10.5526 2.69727 10.5527C2.69727 10.5528 2.69727 10.5529 2.69727 10.553C2.69727 10.5531 2.69727 10.5532 2.69727 10.5534C2.69727 10.5535 2.69727 10.5536 2.69727 10.5537C2.69727 10.5539 2.69727 10.554 2.69727 10.5541C2.69727 10.5542 2.69727 10.5543 2.69727 10.5544C2.69727 10.5545 2.69727 10.5546 2.69727 10.5547C2.69727 10.5549 2.69727 10.555 2.69727 10.5551C2.69727 10.5552 2.69727 10.5553 2.69727 10.5554C2.69727 10.5555 2.69727 10.5557 2.69727 10.5558C2.69727 10.5559 2.69727 10.556 2.69727 10.5561C2.69727 10.5563 2.69727 10.5564 2.69727 10.5565C2.69727 10.5566 2.69727 10.5567 2.69727 10.5568C2.69727 10.5569 2.69727 10.557 2.69727 10.5572C2.69727 10.5573 2.69727 10.5574 2.69727 10.5575C2.69727 10.5577 2.69727 10.5578 2.69727 10.5579C2.69727 10.558 2.69727 10.5581 2.69727 10.5582C2.69727 10.5583 2.69727 10.5584 2.69727 10.5586C2.69727 10.5587 2.69727 10.5588 2.69727 10.5589C2.69727 10.559 2.69727 10.5591 2.69727 10.5592C2.69727 10.5594 2.69727 10.5595 2.69727 10.5596C2.69727 10.5597 2.69727 10.5598 2.69727 10.56C2.69727 10.5601 2.69727 10.5602 2.69727 10.5603C2.69727 10.5604 2.69727 10.5605 2.69727 10.5606C2.69727 10.5608 2.69727 10.5609 2.69727 10.561C2.69727 10.5611 2.69727 10.5613 2.69727 10.5614C2.69727 10.5615 2.69727 10.5616 2.69727 10.5617C2.69727 10.5618 2.69727 10.5619 2.69727 10.562C2.69727 10.5622 2.69727 10.5623 2.69727 10.5624C2.69727 10.5625 2.69727 10.5626 2.69727 10.5627C2.69727 10.5628 2.69727 10.563 2.69727 10.5631C2.69727 10.5632 2.69727 10.5633 2.69727 10.5635C2.69727 10.5636 2.69727 10.5637 2.69727 10.5638C2.69727 10.5639 2.69727 10.564 2.69727 10.5641C2.69727 10.5643 2.69727 10.5644 2.69727 10.5645C2.69727 10.5646 2.69727 10.5647 2.69727 10.5649C2.69727 10.565 2.69727 10.5651 2.69727 10.5652C2.69727 10.5653 2.69727 10.5654 2.69727 10.5656C2.69727 10.5657 2.69727 10.5658 2.69727 10.5659C2.69727 10.566 2.69727 10.5661 2.69727 10.5662C2.69727 10.5664 2.69727 10.5665 2.69727 10.5666C2.69727 10.5667 2.69727 10.5669 2.69727 10.567C2.69727 10.5671 2.69727 10.5672 2.69727 10.5673C2.69727 10.5674 2.69727 10.5675 2.69727 10.5677C2.69727 10.5678 2.69727 10.5679 2.69727 10.568C2.69727 10.5681 2.69727 10.5682 2.69727 10.5683C2.69727 10.5685 2.69727 10.5686 2.69727 10.5687C2.69727 10.5689 2.69727 10.569 2.69727 10.5691C2.69727 10.5692 2.69727 10.5693 2.69727 10.5694C2.69727 10.5695 2.69727 10.5697 2.69727 10.5698C2.69727 10.5699 2.69727 10.57 2.69727 10.5701C2.69727 10.5702 2.69727 10.5704 2.69727 10.5705C2.69727 10.5706 2.69727 10.5707 2.69727 10.5709C2.69727 10.571 2.69727 10.5711 2.69727 10.5712C2.69727 10.5713 2.69727 10.5714 2.69727 10.5716C2.69727 10.5717 2.69727 10.5718 2.69727 10.5719C2.69727 10.572 2.69727 10.5722 2.69727 10.5723C2.69727 10.5724 2.69727 10.5725 2.69727 10.5726C2.69727 10.5728 2.69727 10.5729 2.69727 10.573C2.69727 10.5731 2.69727 10.5732 2.69727 10.5733C2.69727 10.5735 2.69727 10.5736 2.69727 10.5737C2.69727 10.5738 2.69727 10.5739 2.69727 10.5741C2.69727 10.5742 2.69727 10.5743 2.69727 10.5744C2.69727 10.5746 2.69727 10.5747 2.69727 10.5748C2.69727 10.5749 2.69727 10.575 2.69727 10.5751C2.69727 10.5753 2.69727 10.5754 2.69727 10.5755C2.69727 10.5756 2.69727 10.5757 2.69727 10.5759C2.69727 10.576 2.69727 10.5761 2.69727 10.5762C2.69727 10.5764 2.69727 10.5765 2.69727 10.5766C2.69727 10.5767 2.69727 10.5768 2.69727 10.5769C2.69727 10.5771 2.69727 10.5772 2.69727 10.5773C2.69727 10.5774 2.69727 10.5775 2.69727 10.5776C2.69727 10.5778 2.69727 10.5779 2.69727 10.578C2.69727 10.5782 2.69727 10.5783 2.69727 10.5784C2.69727 10.5785 2.69727 10.5786 2.69727 10.5788C2.69727 10.5789 2.69727 10.579 2.69727 10.5791C2.69727 10.5792 2.69727 10.5793 2.69727 10.5795C2.69727 10.5796 2.69727 10.5797 2.69727 10.5799C2.69727 10.58 2.69727 10.5801 2.69727 10.5802C2.69727 10.5803 2.69727 10.5805 2.69727 10.5806C2.69727 10.5807 2.69727 10.5808 2.69727 10.5809C2.69727 10.581 2.69727 10.5812 2.69727 10.5813C2.69727 10.5815 2.69727 10.5816 2.69727 10.5817C2.69727 10.5818 2.69727 10.5819 2.69727 10.582C2.69727 10.5822 2.69727 10.5823 2.69727 10.5824C2.69727 10.5825 2.69727 10.5826 2.69727 10.5828C2.69727 10.5829 2.69727 10.583 2.69727 10.5831C2.69727 10.5833 2.69727 10.5834 2.69727 10.5835C2.69727 10.5836 2.69727 10.5838 2.69727 10.5839C2.69727 10.584 2.69727 10.5841 2.69727 10.5842C2.69727 10.5844 2.69727 10.5845 2.69727 10.5846C2.69727 10.5847 2.69727 10.5848 2.69727 10.585C2.69727 10.5851 2.69727 10.5852 2.69727 10.5854C2.69727 10.5855 2.69727 10.5856 2.69727 10.5857C2.69727 10.5858 2.69727 10.586 2.69727 10.5861C2.69727 10.5862 2.69727 10.5863 2.69727 10.5865C2.69727 10.5866 2.69727 10.5867 2.69727 10.5868C2.69727 10.587 2.69727 10.5871 2.69727 10.5872C2.69727 10.5873 2.69727 10.5875 2.69727 10.5876C2.69727 10.5877 2.69727 10.5878 2.69727 10.5879C2.69727 10.5881 2.69727 10.5882 2.69727 10.5883C2.69727 10.5884 2.69727 10.5886 2.69727 10.5887C2.69727 10.5888 2.69727 10.589 2.69727 10.5891C2.69727 10.5892 2.69727 10.5893 2.69727 10.5895C2.69727 10.5896 2.69727 10.5897 2.69727 10.5898C2.69727 10.5899 2.69727 10.5901 2.69727 10.5902C2.69727 10.5903 2.69727 10.5904 2.69727 10.5906C2.69727 10.5907 2.69727 10.5908 2.69727 10.591C2.69727 10.5911 2.69727 10.5912 2.69727 10.5913C2.69727 10.5915 2.69727 10.5916 2.69727 10.5917C2.69727 10.5918 2.69727 10.5919 2.69727 10.5921C2.69727 10.5922 2.69727 10.5923 2.69727 10.5925C2.69727 10.5926 2.69727 10.5927 2.69727 10.5929C2.69727 10.593 2.69727 10.5931 2.69727 10.5932C2.69727 10.5934 2.69727 10.5935 2.69727 10.5936C2.69727 10.5937 2.69727 10.5938 2.69727 10.594C2.69727 10.5941 2.69727 10.5943 2.69727 10.5944C2.69727 10.5945 2.69727 10.5946 2.69727 10.5948C2.69727 10.5949 2.69727 10.595 2.69727 10.5951C2.69727 10.5953 2.69727 10.5954 2.69727 10.5955C2.69727 10.5956 2.69727 10.5958 2.69727 10.5959C2.69727 10.5961 2.69727 10.5962 2.69727 10.5963C2.69727 10.5964 2.69727 10.5966 2.69727 10.5967C2.69727 10.5968 2.69727 10.5969 2.69727 10.5971C2.69727 10.5972 2.69727 10.5973 2.69727 10.5974C2.69727 10.5976 2.69727 10.5977 2.69727 10.5978C2.69727 10.598 2.69727 10.5981 2.69727 10.5982C2.69727 10.5984 2.69727 10.5985 2.69727 10.5986C2.69727 10.5987 2.69727 10.5989 2.69727 10.599C2.69727 10.5991 2.69727 10.5992 2.69727 10.5994C2.69727 10.5995 2.69727 10.5996 2.69727 10.5998C2.69727 10.5999 2.69727 10.6 2.69727 10.6002C2.69727 10.6003 2.69727 10.6004 2.69727 10.6005C2.69727 10.6007 2.69727 10.6008 2.69727 10.6009C2.69727 10.6011 2.69727 10.6012 2.69727 10.6013C2.69727 10.6014 2.69727 10.6016 2.69727 10.6017C2.69727 10.6019 2.69727 10.602 2.69727 10.6021C2.69727 10.6022 2.69727 10.6024 2.69727 10.6025C2.69727 10.6026 2.69727 10.6028 2.69727 10.6029C2.69727 10.603 2.69727 10.6031 2.69727 10.6033C2.69727 10.6034 2.69727 10.6036 2.69727 10.6037C2.69727 10.6038 2.69727 10.604 2.69727 10.6041C2.69727 10.6042 2.69727 10.6043 2.69727 10.6045C2.69727 10.6046 2.69727 10.6047 2.69727 10.6049C2.69727 10.605 2.69727 10.6051 2.69727 10.6053C2.69727 10.6054 2.69727 10.6056 2.69727 10.6057C2.69727 10.6058 2.69727 10.6059 2.69727 10.6061C2.69727 10.6062 2.69727 10.6063 2.69727 10.6065C2.69727 10.6066 2.69727 10.6067 2.69727 10.6068C2.69727 10.607 2.69727 10.6072 2.69727 10.6073C2.69727 10.6074 2.69727 10.6075 2.69727 10.6077C2.69727 10.6078 2.69727 10.6079 2.69727 10.6081C2.69727 10.6082 2.69727 10.6083 2.69727 10.6085C2.69727 10.6086 2.69727 10.6087 2.69727 10.6088C2.69727 10.609 2.69727 10.6092 2.69727 10.6093C2.69727 10.6094 2.69727 10.6096 2.69727 10.6097C2.69727 10.6098 2.69727 10.6099 2.69727 10.6101C2.69727 10.6102 2.69727 10.6103 2.69727 10.6105C2.69727 10.6106 2.69727 10.6107 2.69727 10.6109C2.69727 10.611 2.69727 10.6112 2.69727 10.6113C2.69727 10.6114 2.69727 10.6116 2.69727 10.6117C2.69727 10.6118 2.69727 10.612 2.69727 10.6121C2.69727 10.6122 2.69727 10.6124 2.69727 10.6125C2.69727 10.6127 2.69727 10.6128 2.69727 10.613C2.69727 10.6131 2.69727 10.6132 2.69727 10.6133C2.69727 10.6135 2.69727 10.6136 2.69727 10.6137C2.69727 10.6139 2.69727 10.614 2.69727 10.6141C2.69727 10.6143 2.69727 10.6145 2.69727 10.6146C2.69727 10.6147 2.69727 10.6149 2.69727 10.615C2.69727 10.6151 2.69727 10.6153 2.69727 10.6154C2.69727 10.6155 2.69727 10.6157 2.69727 10.6158C2.69727 10.6159 2.69727 10.6161 2.69727 10.6162C2.69727 10.6164 2.69727 10.6165 2.69727 10.6167C2.69727 10.6168 2.69727 10.6169 2.69727 10.6171C2.69727 10.6172 2.69727 10.6173 2.69727 10.6175C2.69727 10.6176 2.69727 10.6177 2.69727 10.6179C2.69727 10.618 2.69727 10.6182 2.69727 10.6183C2.69727 10.6185 2.69727 10.6186 2.69727 10.6187C2.69727 10.6189 2.69727 10.619 2.69727 10.6192C2.69727 10.6193 2.69727 10.6194 2.69727 10.6196C2.69727 10.6197 2.69727 10.6198 2.69727 10.62C2.69727 10.6202 2.69727 10.6203 2.69727 10.6204C2.69727 10.6206 2.69727 10.6207 2.69727 10.6208C2.69727 10.621 2.69727 10.6211 2.69727 10.6213C2.69727 10.6214 2.69727 10.6215 2.69727 10.6217C2.69727 10.6219 2.69727 10.622 2.69727 10.6221C2.69727 10.6223 2.69727 10.6224 2.69727 10.6225C2.69727 10.6227 2.69727 10.6228 2.69727 10.623C2.69727 10.6231 2.69727 10.6232 2.69727 10.6234C2.69727 10.6235 2.69727 10.6237 2.69727 10.6238C2.69727 10.624 2.69727 10.6241 2.69727 10.6243C2.69727 10.6244 2.69727 10.6245 2.69727 10.6247C2.69727 10.6248 2.69727 10.625 2.69727 10.6251C2.69727 10.6252 2.69727 10.6254 2.69727 10.6256C2.69727 10.6257 2.69727 10.6259 2.69727 10.626C2.69727 10.6261 2.69727 10.6263 2.69727 10.6264C2.69727 10.6266 2.69727 10.6267 2.69727 10.6268C2.69727 10.627 2.69727 10.6271 2.69727 10.6273C2.69727 10.6274 2.69727 10.6276 2.69727 10.6277C2.69727 10.6279 2.69727 10.628 2.69727 10.6282C2.69727 10.6283 2.69727 10.6284 2.69727 10.6286C2.69727 10.6287 2.69727 10.6289 2.69727 10.629C2.69727 10.6292 2.69727 10.6293 2.69727 10.6295C2.69727 10.6296 2.69727 10.6298 2.69727 10.6299C2.69727 10.6301 2.69727 10.6302 2.69727 10.6303C2.69727 10.6305 2.69727 10.6306 2.69727 10.6308C2.69727 10.6309 2.69727 10.6311 2.69727 10.6312C2.69727 10.6314 2.69727 10.6315 2.69727 10.6317C2.69727 10.6318 2.69727 10.632 2.69727 10.6321C2.69727 10.6323 2.69727 10.6324 2.69727 10.6325C2.69727 10.6327 2.69727 10.6329 2.69727 10.633C2.69727 10.6332 2.69727 10.6333 2.69727 10.6335C2.69727 10.6336 2.69727 10.6337 2.69727 10.6339C2.69727 10.634 2.69727 10.6342 2.69727 10.6343C2.69727 10.6345 2.69727 10.6346 2.69727 10.6348C2.69727 10.635 2.69727 10.6351 2.69727 10.6353C2.69727 10.6354 2.69727 10.6355 2.69727 10.6357C2.69727 10.6358 2.69727 10.636 2.69727 10.6361C2.69727 10.6363 2.69727 10.6364 2.69727 10.6366C2.69727 10.6368 2.69727 10.6369 2.69727 10.6371C2.69727 10.6372 2.69727 10.6374 2.69727 10.6375C2.69727 10.6376 2.69727 10.6378 2.69727 10.6379C2.69727 10.6381 2.69727 10.6382 2.69727 10.6384C2.69727 10.6386 2.69727 10.6387 2.69727 10.6389C2.69727 10.639 2.69727 10.6392 2.69727 10.6393H3.81871ZM3.81871 10.444V2.04563H2.69727V10.444H3.81871ZM3.81871 2.04563V1.26439H2.69727V2.04563H3.81871ZM3.25799 1.82976H4.80761V0.699015H3.25799V1.82976ZM4.24689 1.26439V2.04563H5.36833V1.26439H4.24689ZM4.24689 2.04563V4.81905H5.36833V2.04563H4.24689ZM28.2802 15.3268L28.6167 14.8745L28.1599 14.5291L27.8256 14.9958L28.2802 15.3268ZM29.5199 16.2643L29.9762 16.5929L30.2947 16.1434L29.8564 15.812L29.5199 16.2643ZM22.1592 20.0143L22.1646 19.4489L22.1619 19.4489H22.1592V20.0143ZM30.6822 11.4206V11.9859H31.2429V11.4206H30.6822ZM15.2246 11.4206V10.8552H14.6117L14.6661 11.4707L15.2246 11.4206ZM22.1592 18.4518L22.1657 17.8865L22.1625 17.8864H22.1592V18.4518ZM15.2246 9.85808L14.6661 9.80792L14.6117 10.4235H15.2246V9.85808ZM29.1325 9.85808V10.4235H29.6933V9.85808H29.1325ZM27.9438 15.7791L29.1835 16.7166L29.8564 15.812L28.6167 14.8745L27.9438 15.7791ZM29.0637 15.9357C27.9656 17.4857 25.9484 19.4856 22.1646 19.4489L22.1538 20.5796C26.428 20.6211 28.7498 18.3241 29.9762 16.5929L29.0637 15.9357ZM22.1592 19.4489C17.8233 19.4489 14.197 15.6055 14.197 10.6393H13.0755C13.0755 16.1418 17.1199 20.5796 22.1592 20.5796V19.4489ZM14.197 10.6393C14.197 5.67311 17.8233 1.82976 22.1592 1.82976V0.699015C17.1199 0.699015 13.0755 5.13687 13.0755 10.6393H14.197ZM22.1592 1.82976C26.4579 1.82976 30.1214 5.67484 30.1214 10.6393H31.2429C31.2429 5.13514 27.1582 0.699015 22.1592 0.699015V1.82976ZM30.1214 10.6393V11.4206H31.2429V10.6393H30.1214ZM30.6822 10.8552H29.9073V11.9859H30.6822V10.8552ZM29.9073 10.8552H15.2246V11.9859H29.9073V10.8552ZM14.6661 11.4707C15.0356 15.651 18.1352 19.0172 22.1592 19.0172V17.8864C18.8225 17.8864 16.111 15.0808 15.7831 11.3704L14.6661 11.4707ZM22.1527 19.0171C25.7309 19.059 27.6649 17.1516 28.7348 15.6578L27.8256 14.9958C26.8811 16.3145 25.2509 17.9226 22.1657 17.8865L22.1527 19.0171ZM15.2246 10.4235H29.1325V9.29271H15.2246V10.4235ZM29.6933 9.85808C29.6933 6.05054 26.3627 2.2615 22.1592 2.2615V3.39225C25.7038 3.39225 28.5718 6.63442 28.5718 9.85808H29.6933ZM22.1592 2.2615C18.1352 2.2615 15.0356 5.62771 14.6661 9.80792L15.7831 9.90825C16.111 6.1979 18.8225 3.39225 22.1592 3.39225V2.2615ZM46.1215 4.62374L45.615 4.86614L45.6166 4.86965L45.6183 4.87314L46.1215 4.62374ZM52.1264 1.26439L52.2098 1.82346L52.2107 1.82332L52.2116 1.82319L52.1264 1.26439ZM58.6347 19.233H58.074V19.2465L58.0745 19.2599L58.6347 19.233ZM58.6735 20.0533V20.6187H59.2617L59.2337 20.0264L58.6735 20.0533ZM57.1626 20.0533L56.6024 20.0815L56.6294 20.6187H57.1626V20.0533ZM57.1238 19.2721L56.5631 19.2741V19.2872L56.5636 19.3003L57.1238 19.2721ZM57.0851 8.56903H56.5244V8.57006V8.57108L57.0851 8.56903ZM47.1675 19.233H46.6068V19.2465L46.6074 19.2599L47.1675 19.233ZM47.2063 20.0533V20.6187H47.7943L47.7663 20.0264L47.2063 20.0533ZM45.6954 20.0533L45.1353 20.0815L45.162 20.6187H45.6954V20.0533ZM45.6567 19.2721H45.0959V19.2862L45.0966 19.3003L45.6567 19.2721ZM35.7003 20.0143V20.5796H36.261V20.0143H35.7003ZM34.1507 20.0143H33.59V20.5796H34.1507V20.0143ZM34.1507 1.26439V0.699015H33.59V1.26439H34.1507ZM35.7003 1.26439H36.261V0.699015H35.7003V1.26439ZM35.7003 3.80344H35.1396V5.4559L36.1435 4.14977L35.7003 3.80344ZM45.6183 4.87314C45.7514 5.14623 45.8806 5.39538 46.0144 5.55124C46.0749 5.62164 46.2278 5.7852 46.4761 5.81471C46.7735 5.85004 46.9693 5.67552 47.0516 5.58047C47.132 5.48772 47.187 5.38025 47.2208 5.31025C47.2584 5.23252 47.2975 5.14086 47.334 5.05603C47.4105 4.8781 47.4988 4.67485 47.6232 4.45011C48.0951 3.59789 49.1649 2.28583 52.2098 1.82346L52.0429 0.705319C48.6568 1.2195 47.286 2.73946 46.644 3.89894C46.49 4.17713 46.3828 4.42554 46.3051 4.60618C46.2645 4.70064 46.2368 4.765 46.2127 4.8148C46.185 4.87232 46.1834 4.86388 46.2072 4.83644C46.2329 4.80669 46.372 4.66376 46.6074 4.69173C46.7062 4.70347 46.7754 4.74241 46.8112 4.76722C46.8295 4.77994 46.8423 4.79121 46.8498 4.79827C46.8574 4.80541 46.8615 4.81017 46.8622 4.81104C46.8631 4.81204 46.8568 4.8047 46.843 4.78376C46.8296 4.76347 46.8125 4.73525 46.7908 4.69693C46.7471 4.61951 46.6931 4.51455 46.6248 4.37435L45.6183 4.87314ZM52.2116 1.82319C53.7406 1.58601 55.1873 2.26241 56.2792 3.52971C57.3736 4.79982 58.074 6.62964 58.074 8.56903H59.1955C59.1955 6.36782 58.4043 4.27189 57.1259 2.78811C55.8449 1.30151 54.0375 0.395901 52.0411 0.705589L52.2116 1.82319ZM58.074 8.56903V19.233H59.1955V8.56903H58.074ZM58.0745 19.2599L58.1133 20.0802L59.2337 20.0264L59.1949 19.2061L58.0745 19.2599ZM58.6735 19.488H57.1626V20.6187H58.6735V19.488ZM57.7228 20.0251L57.6841 19.2439L56.5636 19.3003L56.6024 20.0815L57.7228 20.0251ZM57.6846 19.27L57.6458 8.56697L56.5244 8.57108L56.5631 19.2741L57.6846 19.27ZM57.6458 8.56903C57.6458 5.21495 55.302 2.2615 52.1264 2.2615V3.39225C54.5298 3.39225 56.5244 5.67315 56.5244 8.56903H57.6458ZM52.1264 2.2615C48.9508 2.2615 46.6068 5.21495 46.6068 8.56903H47.7283C47.7283 5.67315 49.7232 3.39225 52.1264 3.39225V2.2615ZM46.6068 8.56903V9.35027H47.7283V8.56903H46.6068ZM46.6068 9.35027V19.233H47.7283V9.35027H46.6068ZM46.6074 19.2599L46.6462 20.0802L47.7663 20.0264L47.7276 19.2061L46.6074 19.2599ZM47.2063 19.488H45.6954V20.6187H47.2063V19.488ZM46.2554 20.0251L46.2167 19.2439L45.0966 19.3003L45.1353 20.0815L46.2554 20.0251ZM46.2174 19.2721C46.2174 17.61 46.2076 15.958 46.198 14.3078C46.1883 12.6572 46.1786 11.0085 46.1786 9.35027H45.0572C45.0572 11.0124 45.0669 12.6644 45.0766 14.3145C45.0863 15.9652 45.0959 17.6139 45.0959 19.2721H46.2174ZM46.1786 9.35027V8.56903H45.0572V9.35027H46.1786ZM46.1786 8.56903C46.1786 5.21495 43.8346 2.2615 40.6591 2.2615V3.39225C43.0623 3.39225 45.0572 5.67315 45.0572 8.56903H46.1786ZM40.6591 2.2615C37.4836 2.2615 35.1396 5.21495 35.1396 8.56903H36.261C36.261 5.67315 38.2559 3.39225 40.6591 3.39225V2.2615ZM35.1396 8.56903V9.35027H36.261V8.56903H35.1396ZM35.1396 9.35027V19.233H36.261V9.35027H35.1396ZM35.1396 19.233V20.0143H36.261V19.233H35.1396ZM35.7003 19.4489H34.1507V20.5796H35.7003V19.4489ZM34.7114 20.0143V19.233H33.59V20.0143H34.7114ZM34.7114 19.233V9.35027H33.59V19.233H34.7114ZM34.7114 9.35027V8.56903H33.59V9.35027H34.7114ZM34.7114 8.56903V2.04563H33.59V8.56903H34.7114ZM34.7114 2.04563V1.26439H33.59V2.04563H34.7114ZM34.1507 1.82976H35.7003V0.699015H34.1507V1.82976ZM35.1396 1.26439V2.04563H36.261V1.26439H35.1396ZM35.1396 2.04563V3.80344H36.261V2.04563H35.1396ZM36.1435 4.14977C37.2495 2.7108 38.8743 1.82976 40.6591 1.82976V0.699015C38.4923 0.699015 36.553 1.77109 35.2571 3.4571L36.1435 4.14977ZM40.6591 1.82976C41.8198 1.82976 42.8104 2.07623 43.6267 2.56574C44.4401 3.05352 45.1145 3.80283 45.615 4.86614L46.6281 4.38134C46.0438 3.13998 45.2267 2.20962 44.1999 1.59388C43.176 0.979886 41.9778 0.699015 40.6591 0.699015V1.82976ZM65.2201 5.2878H64.6594V7.23305L65.6937 5.59085L65.2201 5.2878ZM72.2322 1.26439L72.2251 1.82971L72.2286 1.82976H72.2322V1.26439ZM65.2201 16.0299L65.6916 15.7234L64.6594 14.1107V16.0299H65.2201ZM65.2201 27.2798V27.8452H65.7809V27.2798H65.2201ZM63.6705 27.2798H63.1098V27.8452H63.6705V27.2798ZM63.6705 1.26439V0.699015H63.1098V1.26439H63.6705ZM65.2201 1.26439H65.7809V0.699015H65.2201V1.26439ZM65.2201 10.6393L64.6599 10.629L64.6594 10.6342V10.6393H65.2201ZM72.2322 2.82688L72.2266 3.39222L72.2296 3.39225H72.2322V2.82688ZM65.6937 5.59085C67.1531 3.27292 69.578 1.79364 72.2251 1.82971L72.2398 0.699066C69.1533 0.657008 66.3864 2.38084 64.7471 4.98475L65.6937 5.59085ZM72.2322 1.82976C76.4911 1.82976 80.1557 5.67311 80.1557 10.6393H81.2771C81.2771 5.13687 77.1941 0.699015 72.2322 0.699015V1.82976ZM80.1557 10.6393C80.1557 15.6038 76.4927 19.4489 72.1935 19.4489V20.5796C77.1925 20.5796 81.2771 16.1435 81.2771 10.6393H80.1557ZM72.1935 19.4489C69.5377 19.4489 67.1495 18.002 65.6916 15.7234L64.7491 16.3364C66.3905 18.9015 69.1161 20.5796 72.1935 20.5796V19.4489ZM64.6594 16.0299V26.4986H65.7809V16.0299H64.6594ZM64.6594 26.4986V27.2798H65.7809V26.4986H64.6594ZM65.2201 26.7145H63.6705V27.8452H65.2201V26.7145ZM64.2312 27.2798V26.4986H63.1098V27.2798H64.2312ZM64.2312 26.4986V10.6393H63.1098V26.4986H64.2312ZM64.2312 10.6393V2.04563H63.1098V10.6393H64.2312ZM64.2312 2.04563V1.26439H63.1098V2.04563H64.2312ZM63.6705 1.82976H65.2201V0.699015H63.6705V1.82976ZM64.6594 1.26439V2.04563H65.7809V1.26439H64.6594ZM64.6594 2.04563V5.2878H65.7809V2.04563H64.6594ZM64.6594 10.6393C64.6594 15.1888 67.9539 19.0172 72.1935 19.0172V17.8864C68.6854 17.8864 65.7809 14.6836 65.7809 10.6393H64.6594ZM72.1935 19.0172C76.4335 19.0172 79.7275 15.1888 79.7275 10.6393H78.6061C78.6061 14.6836 75.702 17.8864 72.1935 17.8864V19.0172ZM79.7275 10.6393C79.7275 6.09202 76.4356 2.2615 72.2322 2.2615V3.39225C75.7 3.39225 78.6061 6.59294 78.6061 10.6393H79.7275ZM72.2378 2.26153C67.985 2.21864 64.7415 6.09901 64.6599 10.629L65.7809 10.6496C65.8543 6.58595 68.7318 3.35698 72.2266 3.39222L72.2378 2.26153ZM83.1979 10.6393C83.1979 5.67484 86.8614 1.82976 91.1601 1.82976V0.699015C86.161 0.699015 82.0764 5.13514 82.0764 10.6393H83.1979ZM91.1601 1.82976C95.4588 1.82976 99.1223 5.67484 99.1223 10.6393H100.244C100.244 5.13514 96.1592 0.699015 91.1601 0.699015V1.82976ZM99.1223 10.6393C99.1223 15.6038 95.4588 19.4489 91.1601 19.4489V20.5796C96.1592 20.5796 100.244 16.1435 100.244 10.6393H99.1223ZM91.1601 19.4489C86.8614 19.4489 83.1979 15.6038 83.1979 10.6393H82.0764C82.0764 16.1435 86.161 20.5796 91.1601 20.5796V19.4489ZM83.626 10.6393C83.626 15.1888 86.92 19.0172 91.1601 19.0172V17.8864C87.6515 17.8864 84.7475 14.6836 84.7475 10.6393H83.626ZM91.1601 19.0172C95.3996 19.0172 98.6941 15.1888 98.6941 10.6393H97.5727C97.5727 14.6836 94.6682 17.8864 91.1601 17.8864V19.0172ZM98.6941 10.6393C98.6941 6.08986 95.3996 2.2615 91.1601 2.2615V3.39225C94.6682 3.39225 97.5727 6.5951 97.5727 10.6393H98.6941ZM91.1601 2.2615C86.92 2.2615 83.626 6.08986 83.626 10.6393H84.7475C84.7475 6.5951 87.6515 3.39225 91.1601 3.39225V2.2615Z" fill="#0259DB"/>
</g>
<defs>
<clipPath id="clip0_77_894">
<rect width="104" height="26.624" fill="white" transform="translate(0 0.687988)"/>
</clipPath>
</defs>
</svg>
