<svg width="101" height="100" viewBox="0 0 101 100" fill="none" xmlns="http://www.w3.org/2000/svg">
<rect x="0.65" y="0.15" width="99.7" height="99.7" rx="49.85" fill="#0144A8"/>
<rect x="0.65" y="0.15" width="99.7" height="99.7" rx="49.85" fill="url(#paint0_linear_16_620)"/>
<g clip-path="url(#clip0_16_620)">
<path d="M34.4793 68.58L52.5593 62.12C55.3193 61.14 56.1193 57.6 54.0393 55.52L44.9793 46.46C42.8993 44.38 39.3793 45.18 38.3793 47.94L31.9193 66.02C31.3593 67.62 32.8793 69.14 34.4793 68.58Z" fill="white"/>
<path d="M56.6195 50L66.7395 39.88C67.7195 38.9 69.2995 38.9 70.2795 39.88L70.3995 40C70.9795 40.58 71.9395 40.58 72.5195 40C73.0995 39.42 73.0995 38.46 72.5195 37.88L72.3995 37.76C70.2595 35.62 66.7595 35.62 64.6195 37.76L54.4995 47.88C53.9195 48.46 53.9195 49.42 54.4995 50C55.0795 50.58 56.0395 50.58 56.6195 50Z" fill="white"/>
<path d="M46.6195 39.76L46.4995 39.88C45.9195 40.46 45.9195 41.42 46.4995 42C47.0795 42.58 48.0395 42.58 48.6195 42L48.7395 41.88C50.8795 39.74 50.8795 36.24 48.7395 34.1L48.6395 34C48.0395 33.4 47.0795 33.4 46.4995 34C45.9195 34.58 45.9195 35.54 46.4995 36.12L46.6195 36.24C47.5795 37.2 47.5795 38.8 46.6195 39.76Z" fill="white"/>
<path d="M60.6195 49.76L58.4995 51.88C57.9195 52.46 57.9195 53.42 58.4995 54C59.0795 54.58 60.0395 54.58 60.6195 54L62.7395 51.88C63.7195 50.9 65.2995 50.9 66.2795 51.88L68.4395 54.04C69.0195 54.62 69.9795 54.62 70.5595 54.04C71.1395 53.46 71.1395 52.5 70.5595 51.92L68.3995 49.76C66.2395 47.62 62.7595 47.62 60.6195 49.76Z" fill="white"/>
<path d="M56.6195 37.76L50.4995 43.88C49.9195 44.46 49.9195 45.42 50.4995 46C51.0795 46.58 52.0395 46.58 52.6195 46L58.7395 39.88C60.8795 37.74 60.8795 34.24 58.7395 32.1L56.6195 29.98C56.0395 29.4 55.0795 29.4 54.4995 29.98C53.9195 30.56 53.9195 31.52 54.4995 32.1L56.6195 34.22C57.5795 35.2 57.5795 36.8 56.6195 37.76Z" fill="white"/>
</g>
<rect x="0.65" y="0.15" width="99.7" height="99.7" rx="49.85" stroke="#D0D5DD" stroke-width="0.3"/>
<defs>
<linearGradient id="paint0_linear_16_620" x1="50.5" y1="0" x2="50.5" y2="100" gradientUnits="userSpaceOnUse">
<stop stop-color="#ABCDFF"/>
<stop offset="0.666667" stop-color="#0144A8"/>
<stop offset="1" stop-color="#0144A8"/>
</linearGradient>
<clipPath id="clip0_16_620">
<rect width="48" height="48" fill="white" transform="translate(26.5 26)"/>
</clipPath>
</defs>
</svg>
