<svg width="28" height="30" viewBox="0 0 28 30" fill="none" xmlns="http://www.w3.org/2000/svg">
<path d="M7.80361 6.48633C14.6224 -0.282332 22.8947 -2.03903 26.2051 2.5745C29.5155 7.18801 26.606 16.5128 19.7872 23.2814C12.9685 30.1002 4.6962 31.8544 1.33567 27.1908C-1.92211 22.5297 0.987335 13.2525 7.80361 6.48633Z" fill="#F06321"/>
<path d="M12.3174 2.87609C11.5656 3.4274 10.8138 4.07896 10.062 4.78314C4.09522 10.6973 1.58671 18.8192 4.54629 22.8814C7.60359 26.9411 14.9236 25.4375 21.0407 19.4707C24.3511 16.2631 26.5563 12.5517 27.4585 9.09344C27.7091 6.53734 27.3583 4.27944 26.2055 2.57537C23.5993 -1.03325 17.9834 -0.735039 12.3174 2.87609Z" fill="#AE282E"/>
<path d="M20.9397 3.62688V3.77725C20.8897 4.62928 20.3884 5.68179 19.4862 6.58394C18.133 7.88706 16.3287 8.38825 15.5744 7.63897C14.7224 6.83705 15.2261 5.08036 16.5793 3.677C17.9827 2.32377 19.787 1.87269 20.5388 2.67461C20.7894 2.92521 20.9397 3.22593 20.9397 3.62688ZM15.7273 26.6393C12.5171 29.0451 9.20918 30.2505 5.99902 29.7493C7.35225 29.7994 8.45738 28.2933 9.35953 26.2885C10.2617 24.2336 10.7629 22.3291 11.214 20.5222C11.8655 17.6654 11.9157 15.6606 11.5648 15.2096C11.0135 14.5054 9.81061 14.6582 8.40475 15.4601C7.70308 15.8611 6.80093 15.6105 7.85594 14.3074C8.95858 13.0043 13.2188 9.89435 14.7223 9.39316C16.4289 8.94208 18.3335 9.59364 17.6819 11.4481C17.2284 12.8013 11.3142 28.2432 15.7273 26.6393Z" fill="white"/>
</svg>
