<svg width="40" height="36" viewBox="0 0 40 36" fill="none" xmlns="http://www.w3.org/2000/svg">
<path d="M34.3 36C32.9333 36 31.7417 35.5917 30.725 34.775C29.7083 33.9583 29.0667 32.9667 28.8 31.8H18.15C15.95 31.8 14.125 31.075 12.675 29.625C11.225 28.175 10.5 26.35 10.5 24.15C10.5 21.95 11.225 20.125 12.675 18.675C14.125 17.225 15.95 16.5 18.15 16.5H22C23.3667 16.5 24.4833 16.0667 25.35 15.2C26.2167 14.3333 26.65 13.2167 26.65 11.85C26.65 10.4833 26.2167 9.36667 25.35 8.5C24.4833 7.63333 23.3667 7.2 22 7.2H11.2C10.9 8.36667 10.25 9.35833 9.25 10.175C8.25 10.9917 7.06667 11.4 5.7 11.4C4.1 11.4 2.75 10.85 1.65 9.75C0.55 8.65 0 7.3 0 5.7C0 4.1 0.55 2.75 1.65 1.65C2.75 0.55 4.1 0 5.7 0C7.06667 0 8.25 0.408333 9.25 1.225C10.25 2.04167 10.9 3.03333 11.2 4.2H22C24.2 4.2 26.025 4.925 27.475 6.375C28.925 7.825 29.65 9.65 29.65 11.85C29.65 14.05 28.925 15.875 27.475 17.325C26.025 18.775 24.2 19.5 22 19.5H18.15C16.7833 19.5 15.6667 19.9333 14.8 20.8C13.9333 21.6667 13.5 22.7833 13.5 24.15C13.5 25.5167 13.9333 26.6333 14.8 27.5C15.6667 28.3667 16.7833 28.8 18.15 28.8H28.8C29.1 27.6333 29.75 26.6417 30.75 25.825C31.75 25.0083 32.9333 24.6 34.3 24.6C35.9 24.6 37.25 25.15 38.35 26.25C39.45 27.35 40 28.7 40 30.3C40 31.9 39.45 33.25 38.35 34.35C37.25 35.45 35.9 36 34.3 36ZM5.7 8.4C6.46667 8.4 7.10833 8.14167 7.625 7.625C8.14167 7.10833 8.4 6.46667 8.4 5.7C8.4 4.93333 8.14167 4.29167 7.625 3.775C7.10833 3.25833 6.46667 3 5.7 3C4.93333 3 4.29167 3.25833 3.775 3.775C3.25833 4.29167 3 4.93333 3 5.7C3 6.46667 3.25833 7.10833 3.775 7.625C4.29167 8.14167 4.93333 8.4 5.7 8.4Z" fill="#F6F6F6"/>
</svg>
