<svg width="44" height="40" viewBox="0 0 44 40" fill="none" xmlns="http://www.w3.org/2000/svg">
<path d="M21.75 37C21.9167 37 22.1083 36.9583 22.325 36.875C22.5417 36.7917 22.7167 36.6833 22.85 36.55L39.7 19.65C40.1333 19.2167 40.4583 18.725 40.675 18.175C40.8917 17.625 41 17.0667 41 16.5C41 15.9333 40.8917 15.3667 40.675 14.8C40.4583 14.2333 40.1333 13.7333 39.7 13.3L30.7 4.3C30.2667 3.86667 29.7667 3.54167 29.2 3.325C28.6333 3.10834 28.0667 3 27.5 3C26.9333 3 26.375 3.10834 25.825 3.325C25.275 3.54167 24.7833 3.86667 24.35 4.3L23.45 5.2L27.5 9.3C27.9333 9.76667 28.3167 10.3083 28.65 10.925C28.9833 11.5417 29.15 12.2167 29.15 12.95C29.15 14.2167 28.6583 15.3333 27.675 16.3C26.6917 17.2667 25.5667 17.75 24.3 17.75C23.4667 17.75 22.775 17.625 22.225 17.375C21.675 17.125 21.1667 16.7667 20.7 16.3L17.05 12.65L8 21.7C7.83333 21.8667 7.71667 22.0417 7.65 22.225C7.58333 22.4083 7.55 22.6 7.55 22.8C7.55 23.2333 7.69167 23.5917 7.975 23.875C8.25833 24.1583 8.61667 24.3 9.05 24.3C9.25 24.3 9.44167 24.25 9.625 24.15C9.80833 24.05 9.96667 23.9333 10.1 23.8L17 16.9L19.1 19L12.25 25.85C12.0833 26.0167 11.9667 26.2 11.9 26.4C11.8333 26.6 11.8 26.8 11.8 27C11.8 27.4 11.95 27.75 12.25 28.05C12.55 28.35 12.9 28.5 13.3 28.5C13.5 28.5 13.6917 28.4583 13.875 28.375C14.0583 28.2917 14.2167 28.1833 14.35 28.05L21.25 21.15L23.35 23.25L16.5 30.1C16.3667 30.2333 16.2583 30.4083 16.175 30.625C16.0917 30.8417 16.05 31.05 16.05 31.25C16.05 31.65 16.2 32 16.5 32.3C16.8 32.6 17.15 32.75 17.55 32.75C17.75 32.75 17.9333 32.7167 18.1 32.65C18.2667 32.5833 18.4333 32.4667 18.6 32.3L25.5 25.4L27.6 27.5L20.7 34.4C20.5333 34.5667 20.4167 34.75 20.35 34.95C20.2833 35.15 20.25 35.3333 20.25 35.5C20.25 35.9667 20.3833 36.3333 20.65 36.6C20.9167 36.8667 21.2833 37 21.75 37ZM21.75 40C20.65 40 19.6667 39.5917 18.8 38.775C17.9333 37.9583 17.4167 36.95 17.25 35.75C16.1167 35.5833 15.1667 35.1167 14.4 34.35C13.6333 33.5833 13.1667 32.6333 13 31.5C11.8667 31.3333 10.925 30.8583 10.175 30.075C9.425 29.2917 8.96667 28.35 8.8 27.25C7.56667 27.0833 6.55 26.5833 5.75 25.75C4.95 24.9167 4.55 23.9167 4.55 22.75C4.55 22.1833 4.65833 21.6167 4.875 21.05C5.09167 20.4833 5.41667 19.9833 5.85 19.55L17.05 8.35L22.55 13.85C22.8167 14.1167 23.1083 14.325 23.425 14.475C23.7417 14.625 24.05 14.7 24.35 14.7C24.7833 14.7 25.1917 14.5083 25.575 14.125C25.9583 13.7417 26.15 13.3333 26.15 12.9C26.15 12.7 26.0917 12.475 25.975 12.225C25.8583 11.975 25.6667 11.7167 25.4 11.45L18.25 4.3C17.8167 3.86667 17.3167 3.54167 16.75 3.325C16.1833 3.10834 15.6167 3 15.05 3C14.4833 3 13.925 3.10834 13.375 3.325C12.825 3.54167 12.3333 3.86667 11.9 4.3L4.3 11.9C3.83333 12.3667 3.50833 12.8583 3.325 13.375C3.14167 13.8917 3.03333 14.4667 3 15.1C2.96667 15.7667 3.09167 16.4083 3.375 17.025C3.65833 17.6417 4 18.2 4.4 18.7L2.25 20.85C1.58333 20.1167 1.04167 19.2333 0.625 18.2C0.208333 17.1667 0 16.1167 0 15.05C0 14.05 0.191667 13.0917 0.575 12.175C0.958333 11.2583 1.5 10.45 2.2 9.75L9.75 2.2C10.4833 1.46667 11.3167 0.925003 12.25 0.575003C13.1833 0.225003 14.1333 0.0500031 15.1 0.0500031C16.0667 0.0500031 17.0083 0.225003 17.925 0.575003C18.8417 0.925003 19.6667 1.46667 20.4 2.2L21.3 3.1L22.2 2.2C22.9333 1.46667 23.7667 0.925003 24.7 0.575003C25.6333 0.225003 26.5833 0.0500031 27.55 0.0500031C28.5167 0.0500031 29.4583 0.225003 30.375 0.575003C31.2917 0.925003 32.1167 1.46667 32.85 2.2L41.8 11.15C42.5333 11.8833 43.0833 12.7167 43.45 13.65C43.8167 14.5833 44 15.5333 44 16.5C44 17.4667 43.8167 18.4083 43.45 19.325C43.0833 20.2417 42.5333 21.0667 41.8 21.8L24.95 38.65C24.5167 39.0833 24.025 39.4167 23.475 39.65C22.925 39.8833 22.35 40 21.75 40Z" fill="#F6F6F6"/>
</svg>
