<svg width="40" height="40" viewBox="0 0 40 40" fill="none" xmlns="http://www.w3.org/2000/svg">
<path d="M34 13C34.8667 13 35.5833 12.7083 36.15 12.125C36.7167 11.5417 37 10.8333 37 10C37 9.13333 36.7167 8.41667 36.15 7.85C35.5833 7.28333 34.8667 7 34 7C33.1667 7 32.4583 7.28333 31.875 7.85C31.2917 8.41667 31 9.13333 31 10C31 10.8333 31.2917 11.5417 31.875 12.125C32.4583 12.7083 33.1667 13 34 13ZM34 16C32.3 16 30.875 15.425 29.725 14.275C28.575 13.125 28 11.7 28 10C28 8.33333 28.575 6.91667 29.725 5.75C30.875 4.58333 32.3 4 34 4C35.6667 4 37.0833 4.58333 38.25 5.75C39.4167 6.91667 40 8.33333 40 10C40 11.7 39.4167 13.125 38.25 14.275C37.0833 15.425 35.6667 16 34 16ZM20 11C21.1 11 22.0417 10.6167 22.825 9.85C23.6083 9.08333 24 8.13333 24 7C24 5.9 23.6083 4.95833 22.825 4.175C22.0417 3.39167 21.1 3 20 3C18.8667 3 17.9167 3.39167 17.15 4.175C16.3833 4.95833 16 5.9 16 7C16 8.13333 16.3833 9.08333 17.15 9.85C17.9167 10.6167 18.8667 11 20 11ZM20 14C18.0333 14 16.375 13.325 15.025 11.975C13.675 10.625 13 8.96667 13 7C13 5.06667 13.675 3.41667 15.025 2.05C16.375 0.683334 18.0333 0 20 0C21.9333 0 23.5833 0.683334 24.95 2.05C26.3167 3.41667 27 5.06667 27 7C27 8.96667 26.3167 10.625 24.95 11.975C23.5833 13.325 21.9333 14 20 14ZM11 22.75C11 23.9167 11.6083 25.2667 12.825 26.8C14.0417 28.3333 16.4333 30.7167 20 33.95C23.5333 30.75 25.9167 28.3917 27.15 26.875C28.3833 25.3583 29 23.9833 29 22.75C29 21.6833 28.65 20.7917 27.95 20.075C27.25 19.3583 26.4 19 25.4 19C24.8 19 24.2417 19.15 23.725 19.45C23.2083 19.75 22.7167 20.1 22.25 20.5L20 22.6L17.7 20.5C17.2333 20.1 16.7417 19.75 16.225 19.45C15.7083 19.15 15.1667 19 14.6 19C13.5667 19 12.7083 19.3667 12.025 20.1C11.3417 20.8333 11 21.7167 11 22.75ZM8 22.75C8 20.9833 8.66667 19.4167 10 18.05C11.3333 16.6833 12.8667 16 14.6 16C15.6 16 16.5833 16.2333 17.55 16.7C18.5167 17.1667 19.3333 17.8 20 18.6C20.6667 17.8 21.475 17.1667 22.425 16.7C23.375 16.2333 24.3667 16 25.4 16C27.1 16 28.625 16.6833 29.975 18.05C31.325 19.4167 32 20.9833 32 22.75C32 24.5167 31.3583 26.2583 30.075 27.975C28.7917 29.6917 26.1667 32.3667 22.2 36L20 38L17.8 36C13.7667 32.3333 11.125 29.65 9.875 27.95C8.625 26.25 8 24.5167 8 22.75ZM6 13C6.86667 13 7.58333 12.7083 8.15 12.125C8.71667 11.5417 9 10.8333 9 10C9 9.13333 8.71667 8.41667 8.15 7.85C7.58333 7.28333 6.86667 7 6 7C5.16667 7 4.45833 7.28333 3.875 7.85C3.29167 8.41667 3 9.13333 3 10C3 10.8333 3.29167 11.5417 3.875 12.125C4.45833 12.7083 5.16667 13 6 13ZM20.15 40V37H37V21H29.9V18H37C37.8333 18 38.5417 18.2917 39.125 18.875C39.7083 19.4583 40 20.1667 40 21V40H20.15ZM3 37H20.15V40H0V21C0 20.1667 0.291667 19.4583 0.875 18.875C1.45833 18.2917 2.16667 18 3 18H10.05V21H3V37ZM6 16C4.3 16 2.875 15.425 1.725 14.275C0.575 13.125 0 11.7 0 10C0 8.33333 0.575 6.91667 1.725 5.75C2.875 4.58333 4.3 4 6 4C7.66667 4 9.08333 4.58333 10.25 5.75C11.4167 6.91667 12 8.33333 12 10C12 11.7 11.4167 13.125 10.25 14.275C9.08333 15.425 7.66667 16 6 16Z" fill="#F6F6F6"/>
</svg>
