<svg width="29" height="24" viewBox="0 0 29 24" fill="none" xmlns="http://www.w3.org/2000/svg">
<g clip-path="url(#clip0_411_32462)">
<path d="M26.3384 4.64245C23.4781 3.03778 19.8205 3.9913 18.1675 6.77114L14.0008 13.7859C12.7951 15.8116 14.3472 16.5194 16.078 17.5279L20.0874 19.7768C21.4451 20.5379 23.1793 20.0861 23.9625 18.7683L28.2459 11.5593C29.6849 9.13688 28.8311 6.04097 26.3384 4.64245Z" fill="#EA4335"/>
<path d="M21.6239 7.54653L17.6145 5.29762C15.4012 4.10357 14.1478 4.02454 13.2391 5.42819L7.32578 15.3809C5.6746 18.159 6.65753 21.712 9.5161 23.3132C12.0087 24.7117 15.1944 23.8818 16.6334 21.4594L22.6599 11.3142C23.4466 9.99479 22.9817 8.30764 21.6239 7.54653Z" fill="#FBBC04"/>
<path d="M22.3949 2.42958L19.5788 0.84897C16.4639 -0.898295 12.481 0.137693 10.6831 3.16491L5.32125 12.1898C4.52926 13.5213 4.9995 15.2256 6.36959 15.9936L9.52341 17.7632C11.0808 18.6377 13.0714 18.1189 13.9712 16.6052L20.0968 6.29523C21.3661 4.15966 24.1752 3.42777 26.3725 4.66134L22.3949 2.42958Z" fill="#34A853"/>
<path d="M11.4452 5.74713L8.40099 4.04282C7.04327 3.28344 5.30905 3.73357 4.5259 5.0496L0.873568 11.1831C-0.924321 14.2017 0.141682 18.0639 3.2566 19.806L5.57422 21.1031L8.38506 22.6768L9.60488 23.3589C7.43928 21.9501 6.75159 19.1274 8.07568 16.9042L9.02147 15.3167L12.4847 9.50107C13.266 8.18851 12.8011 6.5065 11.4452 5.74713Z" fill="#4285F4"/>
</g>
<defs>
<clipPath id="clip0_411_32462">
<rect width="29" height="24" fill="white"/>
</clipPath>
</defs>
</svg>
