<svg width="32" height="32" viewBox="0 0 32 32" fill="none" xmlns="http://www.w3.org/2000/svg">
<path d="M16.0003 4C9.37262 4 4 9.37275 4 16C4 22.6278 9.37262 28 15.9997 28C22.6268 28 28 22.6278 28 16C28 9.37275 22.6274 4 16.0003 4Z" fill="#673AB7"/>
<path d="M21.4876 12.7478V13.1582C21.4876 13.2791 21.4571 13.3694 21.3967 13.4298C21.3363 13.4903 21.2459 13.5208 21.1251 13.5208H20.4958H19.8664C19.7965 13.5208 19.7444 13.5393 19.7091 13.5776C19.6744 13.6159 19.6571 13.6733 19.6571 13.7493V18.6315V23.5125C19.6571 23.6333 19.6266 23.7243 19.5667 23.7841C19.5063 23.8445 19.4154 23.875 19.2945 23.875H18.789H18.2842C18.1633 23.875 18.0724 23.8445 18.012 23.7841C17.9521 23.7243 17.9216 23.6339 17.9216 23.5125V21.7483V19.9847H17.8845H17.8463C17.6931 20.2515 17.4706 20.4513 17.178 20.5853C16.8861 20.7187 16.5242 20.7851 16.0911 20.7851H15.8147H15.5383C15.0998 20.7851 14.705 20.7205 14.3538 20.5919C14.0021 20.4639 13.6946 20.2707 13.4308 20.0128C13.167 19.7562 12.9696 19.4511 12.8374 19.1005C12.7057 18.7487 12.6393 18.3503 12.6393 17.9064V15.8276V13.7493C12.6393 13.6799 12.625 13.6255 12.5963 13.5872C12.5682 13.5489 12.5251 13.5267 12.4677 13.5208H11.9143H11.3615C11.2407 13.5208 11.1504 13.4885 11.09 13.425C11.0295 13.3616 10.999 13.2671 10.999 13.1391V12.7389V12.3381C10.999 12.2238 11.0295 12.1376 11.09 12.0814C11.1504 12.024 11.2407 11.9953 11.3615 11.9953H14.1702H16.9788C16.5726 11.5723 16.179 11.1248 15.7985 10.6516C15.4181 10.1778 15.0514 9.6795 14.6984 9.15425L14.1642 8.36218L13.6312 7.57131C13.6061 7.52764 13.5875 7.48098 13.5744 7.43372C13.5618 7.38586 13.5546 7.33681 13.5546 7.28596C13.5546 7.19084 13.5785 7.11905 13.6264 7.07119C13.6737 7.02393 13.7455 7 13.8406 7H14.422H15.0035C15.1178 7 15.2165 7.02393 15.2996 7.07119C15.3822 7.11905 15.4492 7.19084 15.5 7.28596L16.8634 9.47909L18.2267 11.6716C18.2973 11.7799 18.3733 11.8613 18.4564 11.9145C18.539 11.9683 18.6281 11.9953 18.7232 11.9953H18.7711H18.819H19.9723H21.1257C21.2465 11.9953 21.3369 12.0234 21.3973 12.0814C21.4577 12.1382 21.4882 12.2238 21.4882 12.3381V12.7478H21.4876Z" fill="white"/>
<path d="M17.7115 13.5215H16.1477H14.584C14.5134 13.5215 14.4608 13.54 14.4261 13.5783C14.3914 13.6166 14.374 13.674 14.374 13.75V15.7433V17.7355C14.374 18.2314 14.4949 18.6029 14.7365 18.8506C14.9782 19.0988 15.3407 19.2227 15.8235 19.2227H16.0807H16.338C16.6054 19.2227 16.8381 19.1886 17.0361 19.1204C17.2347 19.0522 17.3992 18.9493 17.529 18.8129C17.6594 18.6759 17.7576 18.515 17.8228 18.3295C17.888 18.1429 17.9209 17.9329 17.9209 17.6978V15.7242V13.7506C17.9209 13.6746 17.9035 13.6166 17.8682 13.5789C17.8335 13.54 17.7815 13.5215 17.7115 13.5215Z" fill="#673AB7"/>
</svg>
