<svg width="32" height="32" viewBox="0 0 32 32" fill="none" xmlns="http://www.w3.org/2000/svg">
<path d="M31.4999 16C31.502 24.5583 24.5641 31.4979 16.0037 31.5C7.44332 31.502 0.501984 24.5657 0.5 16.0073V16C0.497954 7.44165 7.43588 0.502108 15.9963 0.5C24.5567 0.498017 31.498 7.43428 31.5 15.9926L31.4999 16Z" fill="#156DD1"/>
<path d="M18.7739 16.0002C18.7739 17.5321 17.5321 18.7739 16.0002 18.7739C14.4683 18.7739 13.2266 17.5321 13.2266 16.0002C13.2266 14.4684 14.4683 13.2266 16.0002 13.2266C17.5321 13.2266 18.7739 14.4684 18.7739 16.0002Z" fill="white"/>
<path d="M15.0205 17.957H16.9784V31.4991H15.0205V17.957Z" fill="white"/>
</svg>
